<?xml version="1.0" encoding="utf-8"?>
<!-- Generator: Adobe Illustrator 19.0.0, SVG Export Plug-In . SVG Version: 6.00 Build 0)  -->
<svg version="1.1" id="图层_1" xmlns="http://www.w3.org/2000/svg" xmlns:xlink="http://www.w3.org/1999/xlink" x="0px" y="0px"
	 viewBox="-167 280.7 232 232" style="enable-background:new -167 280.7 232 232;" xml:space="preserve">
<style type="text/css">
	.st0{fill:#262626;}
	.st1{clip-path:url(#SVGID_3_);}
	.st2{clip-path:url(#SVGID_4_);fill:#FFFFFF;}
</style>
<path d="M-131.7,280.7H29.7c19.5,0,35.3,15.8,35.3,35.3v161.5c0,19.5-15.8,35.3-35.3,35.3h-161.5c-19.5,0-35.3-15.8-35.3-35.3V316
	C-167,296.5-151.2,280.7-131.7,280.7z"/>
<polygon class="st0" points="21.9,512.7 -123.5,512.7 -85,382.4 -60.2,333.9 -40,335.7 -17.2,381.9 "/>
<g>
	<defs>
		<rect id="SVGID_1_" x="-167" y="280.7" width="232" height="232"/>
	</defs>
	<defs>
		<path id="SVGID_2_" d="M-59.5,343.4c2-3.7,2.8-4.1,8.6-4.1c5.8,0,6.6,0.4,8.6,4.1c3.2,6,6.8,18.4,13.2,41.1
			c4.9,17.2,11.5,40.4,21.1,71.7H4.9c-10.1-33-17.1-57.3-22.1-75.1c-6.9-24.3-10.4-36.4-14.3-43.6c-5.3-9.7-11.9-10.5-19.4-10.5
			c-7.5,0-14.1,0.8-19.4,10.5c-3.9,7.2-7.4,19.4-14.3,43.6c-5.1,17.8-12,42.1-22.1,75.1h12.9c9.6-31.2,16.2-54.5,21.1-71.7
			C-66.3,361.9-62.7,349.4-59.5,343.4L-59.5,343.4z"/>
	</defs>
	<clipPath id="SVGID_3_">
		<use xlink:href="#SVGID_1_"  style="overflow:visible;"/>
	</clipPath>
	<clipPath id="SVGID_4_" class="st1">
		<use xlink:href="#SVGID_2_"  style="overflow:visible;"/>
	</clipPath>
	<rect x="-109" y="324.7" class="st2" width="116.2" height="133.8"/>
</g>
</svg>
