<?xml version="1.0" encoding="utf-8"?>
<!-- Generator: Adobe Illustrator 19.0.0, SVG Export Plug-In . SVG Version: 6.00 Build 0)  -->
<svg version="1.1" id="图层_1" xmlns="http://www.w3.org/2000/svg" xmlns:xlink="http://www.w3.org/1999/xlink" x="0px" y="0px"
	 viewBox="0 0 60 30.5" style="enable-background:new 0 0 60 30.5;" xml:space="preserve">
<style type="text/css">
	.st0{fill:#B3B3B4;}
</style>
<g id="XMLID_1_">
	<g id="XMLID_4_">
		<path id="XMLID_3_" class="st0" d="M14.4,12.8l1.8-0.2c0.2,1,0.6,1.8,1.1,2.3c0.5,0.5,1.1,0.7,1.9,0.7c0.9,0,1.6-0.3,2.2-0.9
			c0.6-0.6,0.9-1.3,0.9-2.2c0-0.8-0.3-1.5-0.8-2.1c-0.6-0.6-1.3-0.8-2.1-0.8c-0.3,0-0.8,0.1-1.3,0.2l0.2-1.6c0.1,0,0.2,0,0.3,0
			c0.8,0,1.5-0.2,2.1-0.6c0.6-0.4,0.9-1,0.9-1.9c0-0.7-0.2-1.2-0.7-1.7c-0.5-0.4-1-0.7-1.8-0.7c-0.7,0-1.3,0.2-1.8,0.7
			c-0.5,0.5-0.8,1.1-0.9,2l-1.8-0.3c0.2-1.2,0.7-2.2,1.5-2.9c0.8-0.7,1.8-1,3-1c0.8,0,1.6,0.2,2.3,0.5c0.7,0.4,1.2,0.8,1.6,1.4
			c0.4,0.6,0.5,1.3,0.5,1.9c0,0.6-0.2,1.2-0.5,1.8s-0.9,1-1.5,1.3c0.9,0.2,1.6,0.6,2.1,1.3c0.5,0.6,0.7,1.5,0.7,2.4
			c0,1.3-0.5,2.4-1.4,3.3c-1,0.9-2.2,1.4-3.6,1.4c-1.3,0-2.4-0.4-3.3-1.2C15,15.1,14.5,14.1,14.4,12.8z"/>
	</g>
	<g id="XMLID_9_">
		<path id="XMLID_5_" class="st0" d="M35.6,5.5l-1.8,0.1c-0.2-0.7-0.4-1.3-0.7-1.6c-0.5-0.5-1.1-0.8-1.8-0.8c-0.6,0-1.1,0.2-1.5,0.5
			c-0.6,0.4-1,1-1.4,1.9c-0.3,0.8-0.5,2-0.5,3.5c0.4-0.7,1-1.2,1.6-1.5c0.6-0.3,1.3-0.5,2-0.5c1.2,0,2.3,0.5,3.1,1.4
			c0.9,0.9,1.3,2.1,1.3,3.5c0,0.9-0.2,1.8-0.6,2.6c-0.4,0.8-1,1.4-1.7,1.9c-0.7,0.4-1.5,0.6-2.4,0.6c-1.5,0-2.8-0.6-3.8-1.7
			c-1-1.1-1.5-3-1.5-5.6c0-2.9,0.5-5,1.6-6.3c0.9-1.1,2.2-1.7,3.8-1.7c1.2,0,2.2,0.3,2.9,1C35,3.4,35.5,4.3,35.6,5.5z M28.1,11.9
			c0,0.6,0.1,1.2,0.4,1.8c0.3,0.6,0.6,1,1.1,1.3c0.5,0.3,1,0.5,1.5,0.5c0.8,0,1.4-0.3,2-0.9C33.7,14,34,13.1,34,12
			c0-1-0.3-1.9-0.8-2.5c-0.6-0.6-1.3-0.9-2.1-0.9c-0.8,0-1.5,0.3-2.1,0.9C28.4,10.2,28.1,11,28.1,11.9z"/>
	</g>
	<g id="XMLID_12_">
		<path id="XMLID_6_" class="st0" d="M37.7,9.4c0-1.8,0.2-3.2,0.5-4.3c0.4-1.1,0.9-1.9,1.6-2.5c0.7-0.6,1.6-0.9,2.7-0.9
			c0.8,0,1.5,0.2,2.1,0.5c0.6,0.3,1.1,0.8,1.5,1.4c0.4,0.6,0.7,1.4,0.9,2.2c0.2,0.9,0.3,2.1,0.3,3.6c0,1.8-0.2,3.2-0.5,4.3
			c-0.4,1.1-0.9,1.9-1.6,2.5c-0.7,0.6-1.6,0.9-2.7,0.9c-1.4,0-2.6-0.5-3.4-1.6C38.2,14.2,37.7,12.2,37.7,9.4z M39.6,9.4
			c0,2.5,0.3,4.1,0.9,4.9c0.6,0.8,1.3,1.2,2.1,1.2s1.6-0.4,2.1-1.2c0.6-0.8,0.9-2.5,0.9-4.9c0-2.5-0.3-4.1-0.9-4.9
			c-0.6-0.8-1.3-1.2-2.2-1.2c-0.8,0-1.5,0.4-2,1.1C39.9,5.2,39.6,6.9,39.6,9.4z"/>
	</g>
</g>
<g id="XMLID_2_">
	<path id="XMLID_18_" class="st0" d="M51.2,6.2c-1.7,0-3.1-1.4-3.1-3.1S49.5,0,51.2,0c1.7,0,3.1,1.4,3.1,3.1S52.9,6.2,51.2,6.2z
		 M51.2,1.5c-0.9,0-1.6,0.7-1.6,1.6s0.7,1.6,1.6,1.6c0.9,0,1.6-0.7,1.6-1.6S52.1,1.5,51.2,1.5z"/>
</g>
<g id="XMLID_8_">
	<g id="XMLID_15_">
		<path id="XMLID_17_" class="st0" d="M10.2,25.5c0.3,0,0.7-0.2,0.7-0.6c0.1-0.4-0.2-0.8-0.6-0.9c-6.6-1.5-8.9-3.3-8.9-4.5
			c0-1.3,2.7-3.3,10.3-4.8c0.4-0.1,0.7-0.5,0.6-0.9c-0.1-0.4-0.5-0.7-0.9-0.6c-5.2,1-11.5,3-11.5,6.3c0,3.1,5.5,5,10.1,6
			C10.1,25.5,10.2,25.5,10.2,25.5z"/>
	</g>
	<g id="XMLID_16_">
		<path id="XMLID_21_" class="st0" d="M30,27.4c14.5,0,30-2.8,30-7.9c0-3.1-5.7-5-10.5-6.1c-0.4-0.1-0.8,0.2-0.9,0.6
			c-0.1,0.4,0.2,0.8,0.6,0.9c6.8,1.5,9.3,3.4,9.3,4.6c0,3-11.7,6.4-28.5,6.4c-4.5,0-8.8-0.2-12.9-0.7c-0.4-0.1-0.8,0.2-0.8,0.7
			c0,0.4,0.2,0.8,0.7,0.8C21,27.1,25.4,27.4,30,27.4z"/>
	</g>
	<g id="XMLID_22_">
		<path id="XMLID_23_" class="st0" d="M19.1,30.5c0.2,0,0.3-0.1,0.5-0.2c0.3-0.3,0.4-0.7,0.1-1.1l-2.9-3.5l3.6-2.7
			c0.3-0.3,0.4-0.7,0.1-1c-0.3-0.3-0.7-0.4-1-0.1l-4.2,3.2c-0.2,0.1-0.3,0.3-0.3,0.5c0,0.2,0,0.4,0.2,0.6l3.4,4.1
			C18.7,30.4,18.9,30.5,19.1,30.5z"/>
	</g>
</g>
</svg>
