<?xml version="1.0" encoding="utf-8"?>
<!-- Generator: Adobe Illustrator 19.0.0, SVG Export Plug-In . SVG Version: 6.00 Build 0)  -->
<svg version="1.1" id="图层_1" xmlns="http://www.w3.org/2000/svg" xmlns:xlink="http://www.w3.org/1999/xlink" x="0px" y="0px"
	 viewBox="0 0 149.5 52.8" style="enable-background:new 0 0 149.5 52.8;" xml:space="preserve">
<style type="text/css">
	.st0{fill:#F9F9F9;}
	.st1{filter:url(#Adobe_OpacityMaskFilter);}
	.st2{fill:url(#XMLID_90_);}
	.st3{mask:url(#XMLID_89_);fill:#F9F9F9;}
	.st4{filter:url(#Adobe_OpacityMaskFilter_1_);}
	.st5{fill:url(#XMLID_92_);}
	.st6{mask:url(#XMLID_91_);fill:#F9F9F9;}
</style>
<g id="XMLID_31_">
	<g id="XMLID_10_">
		<path id="XMLID_17_" class="st0" d="M37,34.5l3.7-0.3c-0.2,1.3,0,2.2,0.7,2.7c0.7,0.6,1.8,0.8,3.3,0.8c1.7,0,3.3-0.4,4.8-1.1
			c1.4-0.7,2.3-1.6,2.7-2.7c0.4-1,0.2-1.9-0.6-2.5c-0.8-0.7-1.9-1-3.4-1c-0.6,0-1.5,0.1-2.5,0.2l1.3-2c0.2,0,0.4,0,0.5,0
			c1.4,0,2.7-0.2,4-0.7c1.3-0.5,2.1-1.3,2.5-2.3c0.3-0.8,0.2-1.5-0.4-2c-0.5-0.5-1.4-0.8-2.6-0.8c-1.2,0-2.3,0.3-3.3,0.8
			c-1.1,0.5-2,1.4-2.7,2.5l-2.9-0.4c1.2-1.5,2.7-2.7,4.4-3.5c1.7-0.8,3.5-1.2,5.3-1.2c1.3,0,2.4,0.2,3.3,0.6c0.9,0.4,1.6,1,1.9,1.7
			c0.4,0.7,0.4,1.5,0.1,2.3c-0.3,0.8-0.8,1.5-1.6,2.1c-0.8,0.6-1.9,1.2-3.3,1.5c1.5,0.2,2.6,0.8,3.2,1.5c0.6,0.8,0.8,1.8,0.4,2.9
			c-0.5,1.6-1.9,2.9-4.1,4c-2.3,1.1-5,1.7-7.9,1.7c-2.7,0-4.7-0.5-5.9-1.4C36.8,37.3,36.5,36,37,34.5z"/>
		<path id="XMLID_14_" class="st0" d="M77.8,25.6l-3.1,0.2c-0.2-0.9-0.5-1.5-1-1.9c-0.8-0.6-1.7-1-2.9-1c-1,0-1.8,0.2-2.6,0.6
			c-1.1,0.5-2,1.3-2.7,2.2c-0.8,1-1.4,2.4-1.8,4.2c1-0.8,2.1-1.4,3.3-1.8c1.2-0.4,2.4-0.6,3.6-0.6c2.1,0,3.9,0.5,5.4,1.6
			c1.5,1.1,2.2,2.5,2.2,4.2c0,1.1-0.5,2.2-1.3,3.2c-0.8,1-2,1.7-3.5,2.2c-1.5,0.5-3.1,0.8-5,0.8c-3.1,0-5.5-0.7-7.1-2
			c-1.6-1.4-1.9-3.6-1.1-6.7c1-3.5,2.5-6,4.7-7.6c1.8-1.4,4-2.1,6.5-2.1c1.9,0,3.4,0.4,4.5,1.2C77,23.1,77.6,24.2,77.8,25.6z
			 M63.4,33.4c-0.2,0.8-0.1,1.5,0.3,2.2c0.4,0.7,1,1.2,1.9,1.6c0.9,0.4,1.9,0.5,2.9,0.5c1.5,0,2.9-0.4,4.1-1.1
			c1.2-0.8,1.8-1.8,1.9-3.1c0.1-1.3-0.3-2.2-1.3-3c-0.9-0.7-2.1-1.1-3.6-1.1c-1.5,0-2.8,0.4-4,1.1C64.4,31.3,63.7,32.2,63.4,33.4z"
			/>
		<path id="XMLID_11_" class="st0" d="M81.5,30.3c0-2.1,0.3-3.9,0.9-5.2c0.6-1.3,1.4-2.3,2.5-3c1.1-0.7,2.5-1.1,4.2-1.1
			c1.3,0,2.4,0.2,3.5,0.6c1,0.4,2,1,2.8,1.7c0.8,0.7,1.5,1.6,2.2,2.7c0.6,1.1,1.2,2.5,1.6,4.3c0.5,2.1,0.6,3.8,0.2,5.1
			c-0.4,1.3-1.2,2.3-2.5,3c-1.3,0.7-3.1,1.1-5.3,1.1c-2.9,0-5.3-0.6-7-1.9C82.5,36.2,81.5,33.7,81.5,30.3z M84.9,30.3
			c0.2,3,0.8,4.9,2,5.9c1.2,1,2.7,1.5,4.4,1.5c1.7,0,3-0.5,4-1.5c0.9-1,1.1-3,0.5-5.9c-0.6-3-1.5-4.9-2.6-5.9
			c-1.1-1-2.4-1.5-3.8-1.5c-1.4,0-2.4,0.4-3.2,1.3C85.1,25.3,84.7,27.4,84.9,30.3z"/>
	</g>
	<g id="XMLID_4_">
		<path id="XMLID_7_" class="st0" d="M107.9,30.7c-2.5,0-5.2-2.1-6-4.6s0.4-4.6,2.6-4.6c2.2,0,4.9,2.1,6,4.6
			C111.6,28.6,110.4,30.7,107.9,30.7z M105.3,23.5c-1.3,0-1.9,1.2-1.5,2.6c0.5,1.4,2,2.6,3.3,2.6c1.4,0,2-1.2,1.5-2.6
			C108,24.7,106.5,23.5,105.3,23.5z"/>
	</g>
</g>
<g id="XMLID_46_">
	<defs>
		<filter id="Adobe_OpacityMaskFilter" filterUnits="userSpaceOnUse" x="0" y="0" width="33.8" height="52.8">
			<feColorMatrix  type="matrix" values="1 0 0 0 0  0 1 0 0 0  0 0 1 0 0  0 0 0 1 0"/>
		</filter>
	</defs>
	<mask maskUnits="userSpaceOnUse" x="0" y="0" width="33.8" height="52.8" id="XMLID_89_">
		<g id="XMLID_54_" class="st1">
			<linearGradient id="XMLID_90_" gradientUnits="userSpaceOnUse" x1="16.1172" y1="12.6215" x2="15.4486" y2="38.2489">
				<stop  offset="0" style="stop-color:#FFFFFF"/>
				<stop  offset="8.404034e-02" style="stop-color:#D9D9D9"/>
				<stop  offset="0.2233" style="stop-color:#A0A0A0"/>
				<stop  offset="0.3631" style="stop-color:#6F6F6F"/>
				<stop  offset="0.5003" style="stop-color:#474747"/>
				<stop  offset="0.6343" style="stop-color:#282828"/>
				<stop  offset="0.7642" style="stop-color:#121212"/>
				<stop  offset="0.8882" style="stop-color:#050505"/>
				<stop  offset="1" style="stop-color:#000000"/>
			</linearGradient>
			<rect id="XMLID_55_" x="-7.2" y="-9.8" class="st2" width="46" height="69.5"/>
		</g>
	</mask>
	<path id="XMLID_44_" class="st3" d="M25.8,6.8l8,3L33.3,0L10.8,1.2l7.5,3.5c0,0-43.2,17.2,3.2,48l4.2-2.5c0,0-26.2-16.8-18.5-30.8
		C13.5,8.2,25.8,6.8,25.8,6.8z"/>
</g>
<g id="XMLID_2_">
	<defs>
		<filter id="Adobe_OpacityMaskFilter_1_" filterUnits="userSpaceOnUse" x="115.7" y="0" width="33.8" height="52.8">
			<feColorMatrix  type="matrix" values="1 0 0 0 0  0 1 0 0 0  0 0 1 0 0  0 0 0 1 0"/>
		</filter>
	</defs>
	<mask maskUnits="userSpaceOnUse" x="115.7" y="0" width="33.8" height="52.8" id="XMLID_91_">
		<g id="XMLID_5_" class="st4">
			
				<linearGradient id="XMLID_92_" gradientUnits="userSpaceOnUse" x1="144.4505" y1="-253.3785" x2="143.782" y2="-227.7511" gradientTransform="matrix(-1 0 0 -1 277.7943 -213.25)">
				<stop  offset="0" style="stop-color:#FFFFFF"/>
				<stop  offset="8.404034e-02" style="stop-color:#D9D9D9"/>
				<stop  offset="0.2233" style="stop-color:#A0A0A0"/>
				<stop  offset="0.3631" style="stop-color:#6F6F6F"/>
				<stop  offset="0.5003" style="stop-color:#474747"/>
				<stop  offset="0.6343" style="stop-color:#282828"/>
				<stop  offset="0.7642" style="stop-color:#121212"/>
				<stop  offset="0.8882" style="stop-color:#050505"/>
				<stop  offset="1" style="stop-color:#000000"/>
			</linearGradient>
			<rect id="XMLID_6_" x="110.7" y="-7" class="st5" width="46" height="69.5"/>
		</g>
	</mask>
	<path id="XMLID_3_" class="st6" d="M123.7,46l-8-3l0.5,9.8l22.5-1.2l-7.5-3.5c0,0,43.2-17.2-3.3-48l-4.2,2.5
		c0,0,26.2,16.8,18.5,30.8C135.9,44.5,123.7,46,123.7,46z"/>
</g>
</svg>
