<?xml version="1.0" encoding="utf-8"?>
<!-- Generator: Adobe Illustrator 19.0.0, SVG Export Plug-In . SVG Version: 6.00 Build 0)  -->
<svg version="1.1" id="图层_1" xmlns="http://www.w3.org/2000/svg" xmlns:xlink="http://www.w3.org/1999/xlink" x="0px" y="0px"
	 viewBox="-40 40.7 59.3 60" style="enable-background:new -40 40.7 59.3 60;" xml:space="preserve">
<style type="text/css">
	.st0{fill:#9FA0A0;}
</style>
<g id="XMLID_44_">
	<path id="XMLID_45_" class="st0" d="M-1.3,74.2c5.3-3.1,8.9-8.8,8.9-15.5c0-9.9-8.1-18-18-18s-18,8.1-18,18c0,9.8,7.9,17.8,17.8,18
		c0.1,0,0.1,0,0.2,0c12.1,0,22.5,8.5,25.3,20h-50.5c1.5-6.2,5.2-11.7,10.4-15.3c0.9-0.6,1.1-1.9,0.5-2.8s-1.9-1.1-2.8-0.5
		C-34.3,83-38.8,90.3-40,98.5c-0.1,0.6,0.1,1.2,0.5,1.6s0.9,0.7,1.5,0.7h55.3c0.6,0,1.1-0.2,1.5-0.7c0.4-0.4,0.6-1,0.5-1.6
		C17.7,87,9.4,77.7-1.3,74.2L-1.3,74.2z M-24.3,58.8c0-7.7,6.3-14,14-14s14,6.3,14,14s-6.3,14-14,14S-24.3,66.5-24.3,58.8
		L-24.3,58.8z"/>
</g>
</svg>
