<?xml version="1.0" encoding="utf-8"?>
<!-- Generator: Adobe Illustrator 19.0.0, SVG Export Plug-In . SVG Version: 6.00 Build 0)  -->
<svg version="1.1" id="图层_1" xmlns="http://www.w3.org/2000/svg" xmlns:xlink="http://www.w3.org/1999/xlink" x="0px" y="0px"
	 viewBox="-127.7 227.5 47 47" style="enable-background:new -127.7 227.5 47 47;" xml:space="preserve">
<style type="text/css">
	.st0{fill:#F7F8F8;}
</style>
<g>
	<path class="st0" d="M-80.7,271h-47v-30.1h47V271z M-125.1,268.5h41.8v-25.1h-41.8V268.5z M-125.1,268.5"/>
	<path class="st0" d="M-109.4,243.4h-10.4v-10h10.4V243.4z M-117.3,240.9h5.2v-5h-5.2V240.9z M-88.6,243.4H-99v-10h10.4V243.4z
		 M-96.4,240.9h5.2v-5h-5.2V240.9z M-105.3,264l-2.1-1.5l4.7-6.5h-5.5l-1-2l6-8.5l2.1,1.5l-4.7,6.5h5.5l1,2L-105.3,264z M-105.3,264
		"/>
</g>
</svg>
