<?xml version="1.0" encoding="utf-8"?>
<!-- Generator: Adobe Illustrator 19.0.0, SVG Export Plug-In . SVG Version: 6.00 Build 0)  -->
<svg version="1.1" id="图层_1" xmlns="http://www.w3.org/2000/svg" xmlns:xlink="http://www.w3.org/1999/xlink" x="0px" y="0px"
	 viewBox="-195.7 227.5 47 47" style="enable-background:new -195.7 227.5 47 47;" xml:space="preserve">
<style type="text/css">
	.st0{fill:#F7F8F8;}
</style>
<g>
	<g>
		<path class="st0" d="M-166.8,237.5v28.3h-26.8c0,0-0.1,0-0.1-0.1v-28.2H-166.8 M-166.7,235.4h-26.9c-1.3,0-2.1,0.8-2.1,2.1v28.3
			c0,1,1.1,2.1,2.1,2.1h26.9c1.3,0,2.1-0.8,2.1-2.1v-28.3C-164.6,236.4-165.6,235.4-166.7,235.4L-166.7,235.4z"/>
	</g>
	<g>
		<path class="st0" d="M-149.5,266.8c-0.1,0-0.2,0-0.3-0.1l-30.2-13.6c-0.3-0.1-0.5-0.5-0.5-0.9s0.2-0.8,0.5-1l29.3-17.1
			c0.4-0.2,0.8,0,1,0.5c0.2,0.5,0,1.1-0.4,1.3l-27.6,16l28.4,12.8c0.4,0.2,0.6,0.8,0.5,1.3C-148.9,266.5-149.2,266.8-149.5,266.8z"
			/>
	</g>
</g>
</svg>
