<?xml version="1.0" encoding="utf-8"?>
<!-- Generator: Adobe Illustrator 19.0.0, SVG Export Plug-In . SVG Version: 6.00 Build 0)  -->
<svg version="1.1" id="图层_1" xmlns="http://www.w3.org/2000/svg" xmlns:xlink="http://www.w3.org/1999/xlink" x="0px" y="0px"
	 viewBox="-349 227.5 47 47" style="enable-background:new -349 227.5 47 47;" xml:space="preserve">
<style type="text/css">
	.st0{fill:#F7F8F8;}
</style>
<path class="st0" d="M-321.2,240.3c-4.6,0-9.2,0-9.2,0c0,0-6,0.1-6.1,6.1v9.2c0,0,0.1,6,6.1,6.1c4.6,0,9.2,0,9.2,0
	c0,0,6-0.1,6.1-6.1c0-4.6,0-9.2,0-9.2C-315.2,246.4-315.2,240.4-321.2,240.3z M-318.1,249.3c0,1.7,0,4,0,6.3c0,3.2-3.1,3-3.1,3.1
	c0,0-4.6,0-9.2,0c-3.2,0-3.1-3.1-3.1-3.1v-9.2c0-3.2,3.1-3,3.1-3.1c0,0,4.6,0,9.2,0c3.2,0,3.1,3.1,3.1,3.1
	C-318.1,246.4-318.1,247.5-318.1,249.3z M-303.5,252.1c0.8,0,1.5-0.7,1.5-1.5s-0.7-1.5-1.5-1.5h-4.9c0-1,0-1.9,0-2.7h4.9
	c0.8,0,1.5-0.7,1.5-1.5s-0.7-1.5-1.5-1.5h-4.9c0-0.1,0-0.1,0-0.1c0,0-0.1-9.2-9.3-9.3c-0.3,0-0.7,0-1,0V229c0-0.8-0.7-1.5-1.5-1.5
	c-0.8,0-1.5,0.7-1.5,1.5v5.2c-0.9,0-1.8,0-2.7,0V229c0-0.8-0.7-1.5-1.5-1.5c-0.8,0-1.5,0.7-1.5,1.5v5.2c-1,0-1.9,0-2.7,0V229
	c0-0.8-0.7-1.5-1.5-1.5c-0.8,0-1.5,0.7-1.5,1.5v5.2c-0.3,0-0.4,0-0.4,0c0,0-9.2,0.1-9.3,9.3v0.1h-4.9c-0.8,0-1.5,0.7-1.5,1.5
	s0.7,1.5,1.5,1.5h4.9v2.7h-4.9c-0.8,0-1.5,0.7-1.5,1.5s0.7,1.5,1.5,1.5h4.9v2.7h-4.9c-0.8,0-1.5,0.7-1.5,1.5c0,0.8,0.7,1.5,1.5,1.5
	h4.9v1.4c0,0,0.1,9.2,9.3,9.3c0.1,0,0.3,0,0.4,0v4.5c0,0.8,0.7,1.5,1.5,1.5s1.5-0.7,1.5-1.5v-4.5c0.9,0,1.8,0,2.7,0v4.5
	c0,0.8,0.7,1.5,1.5,1.5s1.5-0.7,1.5-1.5v-4.5c1,0,1.9,0,2.7,0v4.5c0,0.8,0.7,1.5,1.5,1.5c0.8,0,1.5-0.7,1.5-1.5v-4.5c0.7,0,1,0,1,0
	c0,0,9.2-0.1,9.3-9.3c0-0.4,0-0.9,0-1.4h4.9c0.8,0,1.5-0.7,1.5-1.5c0-0.8-0.7-1.5-1.5-1.5h-4.9c0-0.9,0-1.9,0-2.7L-303.5,252.1
	L-303.5,252.1z M-311.3,259.2c0,6.5-6.4,6.3-6.4,6.4c0,0-7.9,0-15.7,0c-6.5,0-6.3-6.4-6.4-6.4v-15.7c0-6.5,6.4-6.3,6.4-6.4
	c0,0,7.9,0,15.7,0c6.5,0,6.3,6.4,6.4,6.4C-311.3,243.5-311.3,255.2-311.3,259.2z"/>
</svg>
