<?xml version="1.0" encoding="utf-8"?>
<!-- Generator: Adobe Illustrator 19.0.0, SVG Export Plug-In . SVG Version: 6.00 Build 0)  -->
<svg version="1.1" id="图层_1" xmlns="http://www.w3.org/2000/svg" xmlns:xlink="http://www.w3.org/1999/xlink" x="0px" y="0px"
	 viewBox="-272.5 227.5 47 47" style="enable-background:new -272.5 227.5 47 47;" xml:space="preserve">
<style type="text/css">
	.st0{fill:#F7F8F8;}
</style>
<g>
	<path class="st0" d="M-230.2,231h-6.5v8.5h-4.1V231h-2.7v8.5h-4.1V231h-2.7v8.5h-4.1V231h-2.7v8.5h-4.1V231h-6.5
		c-2.6,0-4.8,2.1-4.8,4.8v30.6c0,2.6,2.1,4.8,4.8,4.8h37.5c2.6,0,4.8-2.1,4.8-4.8v-30.6C-225.5,233.1-227.6,231-230.2,231
		L-230.2,231z M-230.2,268.3h-37.5c-1.1,0-2-0.9-2-2v-19h5.4v-2.7h-5.4v-8.8c0-1.1,0.9-2,2-2h3.7v8.5h30v-8.5h3.7c1.1,0,2,0.9,2,2
		v8.8h-5.4v2.7h5.4v19C-228.2,267.4-229.1,268.3-230.2,268.3L-230.2,268.3z M-230.2,268.3"/>
	<path class="st0" d="M-265.5,264.3h14.6v-12.9h-14.6V264.3z M-262.8,254.1h9.2v7.5h-9.2V254.1z M-246.9,264.3h14.6v-12.9h-14.6
		V264.3z M-244.2,254.1h9.2v7.5h-9.2V254.1z M-244.2,254.1"/>
</g>
</svg>
