<?xml version="1.0" encoding="utf-8"?>
<!-- Generator: Adobe Illustrator 19.0.0, SVG Export Plug-In . SVG Version: 6.00 Build 0)  -->
<svg version="1.1" id="图层_1" xmlns="http://www.w3.org/2000/svg" xmlns:xlink="http://www.w3.org/1999/xlink" x="0px" y="0px"
	 viewBox="0 0 51 45" style="enable-background:new 0 0 51 45;" xml:space="preserve">
<style type="text/css">
	.st0{fill:#B5B6B6;}
</style>
<g>
	<g>
		<path class="st0" d="M0,2.3h3.7c0.8,0,1.5,0.6,1.6,1.3L9.7,33c0.3,1.8,2.1,3.2,4.1,3.2h33.7V34H13.7c-0.7,0-1.5-0.6-1.6-1.3
			L7.8,3.2C7.5,1.4,5.8,0,3.7,0H0V2.3z M0,2.3"/>
		<path class="st0" d="M12.5,8.1h35c0.6,0,1,0.4,0.9,0.9l-3,17.8c-0.1,0.6-0.9,1.2-1.6,1.2H16.2c-0.7,0-1.2,0.5-1.2,1s0.6,1,1.2,1
			h27.5c2,0,3.8-1.3,4.1-3l3-17.8C51.1,7.5,49.6,6,47.5,6h-35c-0.7,0-1.2,0.5-1.2,1C11.2,7.6,11.8,8.1,12.5,8.1L12.5,8.1z
			 M11.2,42.5c0,0.9,0.5,1.7,1.2,2.2c0.8,0.4,1.7,0.4,2.5,0c0.8-0.4,1.2-1.3,1.2-2.2c0-0.9-0.5-1.7-1.2-2.2c-0.8-0.4-1.7-0.4-2.5,0
			C11.7,40.8,11.2,41.6,11.2,42.5L11.2,42.5z M41.2,42.5c0,0.9,0.5,1.7,1.2,2.2c0.8,0.4,1.7,0.4,2.5,0c0.8-0.4,1.2-1.3,1.2-2.2
			c0-0.9-0.5-1.7-1.2-2.2c-0.8-0.4-1.7-0.4-2.5,0C41.7,40.8,41.2,41.6,41.2,42.5L41.2,42.5z M41.2,42.5"/>
	</g>
</g>
</svg>
