<?xml version="1.0" encoding="utf-8"?>
<!-- Generator: Adobe Illustrator 19.0.0, SVG Export Plug-In . SVG Version: 6.00 Build 0)  -->
<svg version="1.1" id="图层_1" xmlns="http://www.w3.org/2000/svg" xmlns:xlink="http://www.w3.org/1999/xlink" x="0px" y="0px"
	 viewBox="0 0 42 36" style="enable-background:new 0 0 42 36;" xml:space="preserve">
<style type="text/css">
	.st0{fill:#B5B5B6;}
</style>
<g id="XMLID_69_">
	<path id="XMLID_1_" class="st0" d="M40.3,3.3H1.7C0.7,3.3,0,2.6,0,1.7v0C0,0.7,0.7,0,1.7,0l38.7,0C41.2,0,42,0.7,42,1.7v0
		C42,2.6,41.2,3.3,40.3,3.3z"/>
	<path id="XMLID_3_" class="st0" d="M40.3,19.7H1.7C0.7,19.7,0,18.9,0,18v0c0-0.9,0.7-1.7,1.7-1.7h38.7c0.9,0,1.7,0.7,1.7,1.7v0
		C42,18.9,41.2,19.7,40.3,19.7z"/>
	<path id="XMLID_4_" class="st0" d="M40.3,36H1.7C0.7,36,0,35.2,0,34.3v0c0-0.9,0.7-1.7,1.7-1.7h38.7c0.9,0,1.7,0.8,1.7,1.7v0
		C42,35.2,41.2,36,40.3,36z"/>
</g>
</svg>
