<?xml version="1.0" encoding="utf-8"?>
<!-- Generator: Adobe Illustrator 19.0.0, SVG Export Plug-In . SVG Version: 6.00 Build 0)  -->
<svg version="1.1" id="图层_1" xmlns="http://www.w3.org/2000/svg" xmlns:xlink="http://www.w3.org/1999/xlink" x="0px" y="0px"
	 viewBox="0 0 58.8 58.2" style="enable-background:new 0 0 58.8 58.2;" xml:space="preserve">
<style type="text/css">
	.st0{fill-rule:evenodd;clip-rule:evenodd;fill:#B5B5B6;}
</style>
<g id="XMLID_1_">
	<g id="XMLID_5_">
		<path id="XMLID_3_" class="st0" d="M27.5,43.6V52c0,3.7,2.1,5.8,5.3,6.1c1.9,0.2,4-0.2,6-0.9c11.9-4,20-15.1,20-27.9
			C58.8,13.2,45.6,0,29.4,0S0,13.2,0,29.4C0,42,8,53.1,19.7,57.1l1-2.8C10.2,50.7,3,40.7,3,29.4C3,14.8,14.8,3,29.4,3
			s26.4,11.8,26.4,26.4c0,11.4-7.3,21.4-18,25c-1.6,0.5-3.3,0.9-4.7,0.7c-1.7-0.2-2.6-1-2.6-3.1v-8.4H27.5L27.5,43.6z"/>
	</g>
	<g id="XMLID_11_">
		<path id="XMLID_4_" class="st0" d="M22.6,15.1c-0.8,0-1.5,0.7-1.5,1.5v8.3c0,0.8,0.7,1.5,1.5,1.5c0.8,0,1.5-0.7,1.5-1.5v-8.3
			C24.1,15.8,23.4,15.1,22.6,15.1L22.6,15.1z M36.2,15.1c-0.8,0-1.5,0.7-1.5,1.5v8.3c0,0.8,0.7,1.5,1.5,1.5c0.8,0,1.5-0.7,1.5-1.5
			v-8.3C37.7,15.8,37,15.1,36.2,15.1L36.2,15.1z"/>
	</g>
	<g id="XMLID_2_">
		<path id="XMLID_8_" class="st0" d="M40.7,28.2H18.8v6.2c0,3.4,2.8,6.2,6.2,6.2h9.4c3.4,0,6.2-2.8,6.2-6.2L40.7,28.2L40.7,28.2
			L40.7,28.2z M43.7,34.5c0,5.1-4.1,9.2-9.3,9.2H25c-5.1,0-9.3-4.2-9.3-9.2v-9.2h27.9L43.7,34.5L43.7,34.5z"/>
	</g>
</g>
</svg>
