<?xml version="1.0" encoding="utf-8"?>
<!-- Generator: Adobe Illustrator 19.0.0, SVG Export Plug-In . SVG Version: 6.00 Build 0)  -->
<svg version="1.1" id="图层_1" xmlns="http://www.w3.org/2000/svg" xmlns:xlink="http://www.w3.org/1999/xlink" x="0px" y="0px"
	 viewBox="0 0 47.3 60" style="enable-background:new 0 0 47.3 60;" xml:space="preserve">
<style type="text/css">
	.st0{fill-rule:evenodd;clip-rule:evenodd;fill:#E95513;}
</style>
<g id="XMLID_547_">
	<g id="XMLID_53_">
		<path id="XMLID_54_" class="st0" d="M20.3,57.3C16.9,53.6,0,35.5,0,23.7C0,10.6,10.6,0,23.7,0c13.1,0,23.7,10.6,23.7,23.7
			c0,11.8-16.9,29.9-20.3,33.6C23.6,60.9,23.6,60.9,20.3,57.3L20.3,57.3z M23.7,3.1c-11.3,0-20.5,9.2-20.5,20.5
			c0,10.7,12.6,24.3,20.2,32.4l0.3,0.3l0.3-0.3c7.5-8.1,20.2-21.7,20.2-32.4C44.1,12.3,35,3.1,23.7,3.1L23.7,3.1z M23.7,35.4
			c-6.4,0-11.6-5.2-11.6-11.6c0-6.4,5.2-11.6,11.6-11.6c6.4,0,11.6,5.2,11.6,11.6C35.3,30.2,30.1,35.4,23.7,35.4L23.7,35.4z
			 M23.7,15.5c-4.6,0-8.4,3.7-8.4,8.4s3.8,8.4,8.4,8.4s8.4-3.8,8.4-8.4C32,19.3,28.3,15.5,23.7,15.5L23.7,15.5z M23.7,15.5"/>
	</g>
</g>
</svg>
