<?xml version="1.0" encoding="utf-8"?>
<!-- Generator: Adobe Illustrator 19.0.0, SVG Export Plug-In . SVG Version: 6.00 Build 0)  -->
<svg version="1.1" id="图层_1" xmlns="http://www.w3.org/2000/svg" xmlns:xlink="http://www.w3.org/1999/xlink" x="0px" y="0px"
	 viewBox="0 0 53.3 66.7" style="enable-background:new 0 0 53.3 66.7;" xml:space="preserve">
<style type="text/css">
	.st0{fill-rule:evenodd;clip-rule:evenodd;fill:#B5B5B6;}
</style>
<g id="XMLID_21_">
	<g id="XMLID_23_">
		<path id="XMLID_3_" class="st0" d="M41.8,11.6V1.8c0-0.9-0.9-1.8-2.2-1.8H13.8c-1.3,0-2.2,0.9-2.2,1.8v9.8C4.4,16.4,0,24.4,0,33.3
			s4.4,17.3,11.6,21.8v9.8c0,0.9,0.9,1.8,1.8,1.8h26.2c0.9,0,1.8-0.9,1.8-1.8v-9.8c7.6-4.9,12-12.9,12-21.8S48.9,16.4,41.8,11.6
			L41.8,11.6z M14.3,3.2h25.1v6.4c-3.9-1.5-8.4-2.5-12.8-2.5s-8.9,1-12.3,2.5V3.2L14.3,3.2z M38.7,64h-24v-6.2
			c3.8,1.9,7.7,2.9,12,2.9s8.6-1,12-2.9V64L38.7,64z M26.7,57.3c-13.1,0-24.4-10.8-24.4-23.9S13.5,9.4,26.7,9.4s24.4,10.8,24.4,23.9
			S39.8,57.3,26.7,57.3L26.7,57.3z"/>
	</g>
	<g id="XMLID_22_">
		<path id="XMLID_4_" class="st0" d="M36.9,24.4L26.7,34.7L19.6,28c-0.4-0.9-1.8-0.9-2.7,0c-0.9,0.9-0.9,1.8,0,2.7l8.4,8
			c0.4,0.4,0.9,0.4,1.3,0.4c0.4,0,0.9,0,1.3-0.4l11.6-11.6c0.4-0.4,0.4-1.8,0-2.7C38.7,24,37.3,24,36.9,24.4L36.9,24.4z"/>
	</g>
</g>
</svg>
