<?xml version="1.0" encoding="utf-8"?>
<!-- Generator: Adobe Illustrator 19.0.0, SVG Export Plug-In . SVG Version: 6.00 Build 0)  -->
<svg version="1.1" id="图层_1" xmlns="http://www.w3.org/2000/svg" xmlns:xlink="http://www.w3.org/1999/xlink" x="0px" y="0px"
	 viewBox="0 0 90.8 62.8" style="enable-background:new 0 0 90.8 62.8;" xml:space="preserve">
<style type="text/css">
	.st0{fill:#CCCCCC;}
</style>
<g>
	<g>
		<path class="st0" d="M90.1,20.2C78.9,7.4,62.6,0,45.4,0C28.1,0,11.9,7.4,0.7,20.2c-1,1.2-0.9,3,0.3,4c1.2,1,3,0.9,4-0.3
			C15,12.4,29.8,5.7,45.4,5.7C61,5.7,75.7,12.4,85.8,24c0.6,0.6,1.3,1,2.1,1c0.7,0,1.3-0.2,1.9-0.7C91,23.2,91.1,21.4,90.1,20.2
			L90.1,20.2z M45.4,16c-12.9,0-25,5.7-33.1,15.7c-1,1.2-0.8,3,0.4,4c1.2,1,3,0.8,4-0.4c7-8.6,17.4-13.6,28.7-13.6
			c11.2,0,21.7,4.9,28.7,13.6c0.6,0.7,1.4,1.1,2.2,1.1c0.6,0,1.3-0.2,1.8-0.6c1.2-1,1.4-2.8,0.4-4C70.4,21.7,58.3,16,45.4,16
			L45.4,16z M45.4,32c-8.7,0-16.7,4.2-21.5,11.3c-0.9,1.3-0.5,3.1,0.8,4c0.5,0.3,1,0.5,1.6,0.5c0.9,0,1.8-0.4,2.3-1.2
			c3.7-5.5,10-8.8,16.8-8.8c6.7,0,12.9,3.2,16.6,8.6c0.9,1.3,2.7,1.6,4,0.7c1.3-0.9,1.6-2.7,0.7-4C61.9,36.2,53.9,32,45.4,32
			L45.4,32z M45.4,51.6c-3.1,0-5.7,2.5-5.7,5.6c0,3.1,2.5,5.6,5.7,5.6c3.1,0,5.7-2.5,5.7-5.6C51.1,54.1,48.5,51.6,45.4,51.6
			L45.4,51.6z M45.4,51.6"/>
	</g>
</g>
</svg>
