<?xml version="1.0" encoding="utf-8"?>
<!-- Generator: Adobe Illustrator 19.0.0, SVG Export Plug-In . SVG Version: 6.00 Build 0)  -->
<svg version="1.1" id="图层_1" xmlns="http://www.w3.org/2000/svg" xmlns:xlink="http://www.w3.org/1999/xlink" x="0px" y="0px"
	 viewBox="-329 536.6 83.9 62" style="enable-background:new -329 536.6 83.9 62;" xml:space="preserve">
<style type="text/css">
	.st0{fill:#DCDDDD;}
</style>
<g>
	<g>
		<path class="st0" d="M-252,558.8c-8.8-10-21.6-15.8-35-15.8c-13.6,0-26.3,5.8-35,15.8c-0.8,0.9-0.7,2.4,0.2,3.1
			c0.9,0.8,2.4,0.7,3.1-0.2c7.8-9,19.4-14.3,31.7-14.3s23.7,5.3,31.7,14.3c0.5,0.5,1,0.8,1.6,0.8c0.5,0,1-0.2,1.5-0.5
			C-251.3,561.2-251.3,559.8-252,558.8L-252,558.8z M-287.1,555.5c-10.1,0-19.6,4.5-25.9,12.3c-0.8,0.9-0.6,2.4,0.3,3.1
			c0.9,0.8,2.4,0.6,3.1-0.3c5.5-6.7,13.6-10.7,22.5-10.7c8.8,0,17,3.8,22.5,10.7c0.5,0.5,1.1,0.9,1.7,0.9c0.5,0,1-0.2,1.4-0.5
			c0.9-0.8,1.1-2.2,0.3-3.1C-267.5,560-277,555.5-287.1,555.5L-287.1,555.5z M-287.1,568.1c-6.8,0-13.1,3.3-16.9,8.9
			c-0.7,1-0.4,2.4,0.6,3.1c0.4,0.2,0.8,0.4,1.3,0.4c0.7,0,1.4-0.3,1.8-0.9c2.9-4.3,7.8-6.9,13.2-6.9c5.3,0,10.1,2.5,13,6.7
			c0.7,1,2.1,1.3,3.1,0.5c1-0.7,1.3-2.1,0.5-3.1C-274.1,571.4-280.4,568.1-287.1,568.1L-287.1,568.1z M-287.1,583.4
			c-2.4,0-4.5,2-4.5,4.4s2,4.4,4.5,4.4c2.4,0,4.5-2,4.5-4.4S-284.6,583.4-287.1,583.4L-287.1,583.4z"/>
	</g>
</g>
</svg>
