<?xml version="1.0" encoding="utf-8"?>
<!-- Generator: Adobe Illustrator 19.0.0, SVG Export Plug-In . SVG Version: 6.00 Build 0)  -->
<svg version="1.1" id="图层_1" xmlns="http://www.w3.org/2000/svg" xmlns:xlink="http://www.w3.org/1999/xlink" x="0px" y="0px"
	 viewBox="0 0 92.7 86.9" style="enable-background:new 0 0 92.7 86.9;" xml:space="preserve">
<style type="text/css">
	.st0{fill:#CCCCCC;}
</style>
<g>
	<g>
		<path class="st0" d="M84.1,0H31.9c-4.8,0-8.7,3.9-8.7,8.7v63.8c0,3.7-2.4,7-5.9,8.2c-3.5,1.2-7.4,0-9.7-2.9
			c-2.3-2.9-2.4-7-0.4-10.1c2-3.1,5.8-4.6,9.4-3.6c1,0.3,2.1,0,2.8-0.8c0.7-0.7,1-1.8,0.7-2.8c-0.3-1-1.1-1.8-2.1-2
			c-6-1.5-12.3,0.9-15.7,6.1C-1,69.6-0.8,76.4,3,81.3s10.3,6.9,16.1,4.9c5.9-2,9.8-7.5,9.8-13.7V29h58v43.5c0,3.7-2.4,7-5.9,8.2
			c-3.5,1.2-7.4,0-9.7-2.9c-2.3-2.9-2.4-7-0.4-10.1c2-3.1,5.8-4.6,9.4-3.6c1,0.3,2.1,0,2.8-0.8c0.7-0.7,1-1.8,0.7-2.8
			c-0.3-1-1.1-1.8-2.1-2c-6-1.5-12.3,0.9-15.7,6.1c-3.4,5.2-3.2,11.9,0.6,16.8c3.8,4.9,10.3,6.9,16.1,4.9c5.9-2,9.8-7.5,9.8-13.7
			V8.7C92.7,3.9,88.9,0,84.1,0L84.1,0z M29,23.2V8.7c0-1.6,1.3-2.9,2.9-2.9h52.2c1.6,0,2.9,1.3,2.9,2.9v14.5H29z M29,23.2"/>
	</g>
</g>
</svg>
