<?xml version="1.0" encoding="utf-8"?>
<!-- Generator: Adobe Illustrator 19.0.0, SVG Export Plug-In . SVG Version: 6.00 Build 0)  -->
<svg version="1.1" id="图层_1" xmlns="http://www.w3.org/2000/svg" xmlns:xlink="http://www.w3.org/1999/xlink" x="0px" y="0px"
	 viewBox="-328 536.5 69.1 62" style="enable-background:new -328 536.5 69.1 62;" xml:space="preserve">
<style type="text/css">
	.st0{fill:#DCDDDD;}
</style>
<g>
	<g>
		<path class="st0" d="M-269.5,540h-33c-3,0-5.5,2.5-5.5,5.5v40.3c0,2.3-1.5,4.4-3.7,5.2c-2.2,0.8-4.7,0-6.1-1.8
			c-1.5-1.8-1.5-4.4-0.3-6.4s3.7-2.9,5.9-2.3c0.6,0.2,1.3,0,1.8-0.5c0.4-0.4,0.6-1.1,0.4-1.8c-0.2-0.6-0.7-1.1-1.3-1.3
			c-3.8-0.9-7.8,0.6-9.9,3.9c-2.1,3.2-2,7.5,0.4,10.6c2.4,3.1,6.5,4.4,10.2,3.1c3.7-1.3,6.2-4.7,6.2-8.7v-27.5h36.7v27.5
			c0,2.3-1.5,4.4-3.7,5.2c-2.2,0.8-4.7,0-6.1-1.8c-1.5-1.8-1.5-4.4-0.3-6.4s3.7-2.9,5.9-2.3c0.6,0.2,1.3,0,1.8-0.5
			c0.4-0.4,0.6-1.1,0.4-1.8c-0.2-0.6-0.7-1.1-1.3-1.3c-3.8-0.9-7.8,0.6-9.9,3.9c-2.1,3.3-2,7.5,0.4,10.6c2.4,3.1,6.5,4.4,10.2,3.1
			c3.7-1.3,6.2-4.7,6.2-8.7v-40.4C-264.1,542.5-266.5,540-269.5,540L-269.5,540z M-304.4,554.7v-9.2c0-1,0.8-1.8,1.8-1.8h33
			c1,0,1.8,0.8,1.8,1.8v9.2H-304.4z"/>
	</g>
</g>
</svg>
