<?xml version="1.0" encoding="utf-8"?>
<!-- Generator: Adobe Illustrator 19.0.0, SVG Export Plug-In . SVG Version: 6.00 Build 0)  -->
<svg version="1.1" id="图层_1" xmlns="http://www.w3.org/2000/svg" xmlns:xlink="http://www.w3.org/1999/xlink" x="0px" y="0px"
	 viewBox="0 0 81.4 86.9" style="enable-background:new 0 0 81.4 86.9;" xml:space="preserve">
<style type="text/css">
	.st0{fill:#DCDDDD;}
</style>
<g>
	<path class="st0" d="M50.1,55.7L35.2,86.9l31.3-14.9l14.9-31.3L50.1,55.7z M43.4,78.7l10.3-19.5l9.2,9.2L43.4,78.7z M43.4,78.7"/>
</g>
<g>
	<path class="st0" d="M9.6,20.3h30.8v5.1H9.6V20.3z M9.6,51h30.8v5.1H9.6V51z M9.6,35.7h46.1v5.1H9.6V35.7z M9.6,35.7"/>
</g>
<g>
	<path class="st0" d="M30.6,83.9H14.8C6.6,83.9,0,77.3,0,69.1V14.8C0,6.6,6.6,0,14.8,0h43.5c8.2,0,14.8,6.6,14.8,14.8v20.9
		c0,1.1-0.9,2-2,2c-1.1,0-2-0.9-2-2V14.8c0-5.9-4.8-10.7-10.7-10.7H14.8C8.9,4.1,4.1,8.9,4.1,14.8v54.4c0,5.9,4.8,10.7,10.7,10.7
		h15.8c1.1,0,2,0.9,2,2C32.6,83,31.7,83.9,30.6,83.9z"/>
</g>
</svg>
