<?xml version="1.0" encoding="utf-8"?>
<!-- Generator: Adobe Illustrator 19.0.0, SVG Export Plug-In . SVG Version: 6.00 Build 0)  -->
<svg version="1.1" id="图层_1" xmlns="http://www.w3.org/2000/svg" xmlns:xlink="http://www.w3.org/1999/xlink" x="0px" y="0px"
	 viewBox="-333 536.5 64.4 62" style="enable-background:new -333 536.5 64.4 62;" xml:space="preserve">
<style type="text/css">
	.st0{fill:#DCDDDD;}
</style>
<g>
	<g>
		<path class="st0" d="M-291,576.3l-10.6,22.3l22.4-10.6l10.6-22.3L-291,576.3z M-295.8,592.7l7.4-13.9l6.6,6.6L-295.8,592.7z"/>
	</g>
	<g>
		<path class="st0" d="M-323.9,551h26v3.6h-26V551z M-323.9,572.9h26v3.6h-26V572.9z M-323.9,562h36.9v3.6h-36.9V562z"/>
	</g>
	<g>
		<path class="st0" d="M-304.9,596.4h-17.5c-5.9,0-10.6-4.7-10.6-10.6v-38.7c0-5.9,4.7-10.6,10.6-10.6h37.3
			c5.9,0,10.6,4.7,10.6,10.6V562c0,0.8-0.6,1.4-1.4,1.4c-0.8,0-1.4-0.6-1.4-1.4v-14.9c0-4.2-3.4-7.6-7.6-7.6h-37.4
			c-4.2,0-7.6,3.4-7.6,7.6v38.8c0,4.2,3.4,7.6,7.6,7.6h17.5c0.8,0,1.4,0.6,1.4,1.4S-304.1,596.4-304.9,596.4z"/>
	</g>
</g>
</svg>
