<?xml version="1.0" encoding="utf-8"?>
<!-- Generator: Adobe Illustrator 19.0.0, SVG Export Plug-In . SVG Version: 6.00 Build 0)  -->
<svg version="1.1" id="图层_1" xmlns="http://www.w3.org/2000/svg" xmlns:xlink="http://www.w3.org/1999/xlink" x="0px" y="0px"
	 viewBox="0 0 52.5 49.5" style="enable-background:new 0 0 52.5 49.5;" xml:space="preserve">
<style type="text/css">
	.st0{fill-rule:evenodd;clip-rule:evenodd;fill:#B5B5B6;}
</style>
<g id="XMLID_1428_">
	<path id="XMLID_1429_" class="st0" d="M52.5,20.4c0,2.4-2,4.4-4.4,4.4h-1.5V48c0,0.8-0.7,1.5-1.5,1.5H7.3c-0.8,0-1.5-0.7-1.5-1.5
		V24.7H4.4c-2.4,0-4.4-2-4.4-4.4c0,1.3-0.5-2.5,2.5-4L25.4,0.2c0.5-0.3,1.3-0.3,1.7,0L50,16.4C53,17.8,52.5,21.6,52.5,20.4
		L52.5,20.4z M48.1,18.6L26.3,3.1L4.4,18.6c0,0-1.5,0.6-1.5,1.7c0,0.8,0.7,1.5,1.5,1.5h2.9c0.8,0,1.5,0.7,1.5,1.5v23.3h35V23.3
		c0-0.8,0.7-1.5,1.5-1.5h2.9c0.8,0,1.5-0.7,1.5-1.5C49.6,19.2,48.1,18.6,48.1,18.6L48.1,18.6z M36.7,41.7l-4.8-4.8
		c-2,1.5-4.4,2.4-7,2.4c-6.4,0-11.7-5.2-11.7-11.7c0-6.4,5.2-11.7,11.7-11.7s11.7,5.2,11.7,11.7c0,2.6-0.9,5.1-2.4,7l4.8,4.8
		c0.6,0.6,0.6,1.6,0,2.2C38.3,42.3,37.3,42.3,36.7,41.7L36.7,41.7z M24.8,18.9c-4.8,0-8.7,3.9-8.7,8.7c0,4.8,3.9,8.7,8.7,8.7
		c4.8,0,8.7-3.9,8.7-8.7C33.6,22.8,29.6,18.9,24.8,18.9L24.8,18.9z"/>
</g>
</svg>
