<?xml version="1.0" encoding="utf-8"?>
<!-- Generator: Adobe Illustrator 19.0.0, SVG Export Plug-In . SVG Version: 6.00 Build 0)  -->
<svg version="1.1" id="图层_1" xmlns="http://www.w3.org/2000/svg" xmlns:xlink="http://www.w3.org/1999/xlink" x="0px" y="0px"
	 viewBox="0 0 60 60" style="enable-background:new 0 0 60 60;" xml:space="preserve">
<style type="text/css">
	.st0{fill-rule:evenodd;clip-rule:evenodd;fill:#E95513;}
</style>
<g id="XMLID_475_">
	<path id="XMLID_466_" class="st0" d="M52.6,60H7.4C3.3,60,0,56.7,0,52.6V15c0-4.1,3.3-7.4,7.4-7.4h1.8c0.8,0,1.4,0.6,1.4,1.4
		c0,0.8-0.6,1.4-1.4,1.4H7.4c-2.6,0-4.7,2.1-4.7,4.7v37.6c0,2.6,2.1,4.7,4.7,4.7h45.2c2.6,0,4.7-2.1,4.7-4.7V15
		c0-2.6-2.1-4.7-4.7-4.7h-1.5c-0.8,0-1.4-0.6-1.4-1.4c0-0.8,0.6-1.4,1.4-1.4h1.5c4.1,0,7.4,3.3,7.4,7.4v37.6
		C60,56.7,56.7,60,52.6,60L52.6,60z"/>
	<path id="XMLID_481_" class="st0" d="M45.3,31H14.7c-0.8,0-1.4-0.6-1.4-1.4c0-0.8,0.6-1.4,1.4-1.4h30.6c0.8,0,1.4,0.6,1.4,1.4
		C46.7,30.4,46.1,31,45.3,31L45.3,31z M31.9,39.8H14.7c-0.8,0-1.4-0.6-1.4-1.4c0-0.8,0.6-1.4,1.4-1.4h17.2c0.8,0,1.4,0.6,1.4,1.4
		C33.3,39.2,32.7,39.8,31.9,39.8L31.9,39.8z M37.2,48.5H14.7c-0.8,0-1.4-0.6-1.4-1.4c0-0.8,0.6-1.4,1.4-1.4h22.5
		c0.8,0,1.4,0.6,1.4,1.4C38.6,47.9,38,48.5,37.2,48.5L37.2,48.5z M43.5,7.3h-4.9C38,3.2,34.4,0,30,0s-7.9,3.2-8.6,7.3h-4.9
		c-1.9,0-3.4,1.5-3.4,3.4v4.9c0,1.9,1.5,3.4,3.4,3.4h27c1.9,0,3.4-1.5,3.4-3.4v-4.9C46.9,8.8,45.4,7.3,43.5,7.3L43.5,7.3z
		 M44.1,15.6c0,0.3-0.3,0.6-0.6,0.6h-27c-0.3,0-0.6-0.3-0.6-0.6v-4.9c0-0.3,0.3-0.6,0.6-0.6h6.2c0.8,0,1.4-0.6,1.4-1.4h0
		c0-3.3,2.7-5.9,5.9-5.9c3.3,0,5.9,2.7,5.9,5.9h0c0,0.8,0.6,1.4,1.4,1.4h6.2c0.3,0,0.6,0.3,0.6,0.6V15.6L44.1,15.6z"/>
</g>
</svg>
