<?xml version="1.0" encoding="utf-8"?>
<!-- Generator: Adobe Illustrator 19.0.0, SVG Export Plug-In . SVG Version: 6.00 Build 0)  -->
<svg version="1.1" id="图层_1" xmlns="http://www.w3.org/2000/svg" xmlns:xlink="http://www.w3.org/1999/xlink" x="0px" y="0px"
	 viewBox="0 0 60 37" style="enable-background:new 0 0 60 37;" xml:space="preserve">
<style type="text/css">
	.st0{fill-rule:evenodd;clip-rule:evenodd;fill:#B3B3B4;}
</style>
<g>
	<path class="st0" d="M55.7,17.5L55.7,17.5C55.7,17.5,55.7,17.5,55.7,17.5L30,33.3L4.3,17.5C3.8,17.2,3.2,17,2.5,17
		C1.1,17,0,17.7,0,18.6c0,0.5,0.3,0.9,0.8,1.1l27.4,16.8c0.5,0.3,1.1,0.5,1.8,0.5c0.7,0,1.3-0.2,1.8-0.4h0l27.5-16.9c0,0,0,0,0,0
		l0,0l0,0c0.4-0.3,0.7-0.7,0.7-1.1c0-0.9-1.1-1.5-2.5-1.5C56.8,17,56.2,17.2,55.7,17.5L55.7,17.5L55.7,17.5L55.7,17.5z"/>
	<path class="st0" d="M55.7,0.5L55.7,0.5C55.7,0.5,55.7,0.5,55.7,0.5L30,16.3L4.3,0.5C3.8,0.2,3.2,0,2.5,0C1.1,0,0,0.7,0,1.5
		C0,2,0.3,2.4,0.8,2.7l27.4,16.8c0.5,0.3,1.1,0.5,1.8,0.5c0.7,0,1.3-0.2,1.8-0.4h0L59.2,2.7c0,0,0,0,0,0l0,0l0,0
		C59.7,2.4,60,2,60,1.6C60,0.7,58.9,0,57.5,0C56.8,0,56.2,0.2,55.7,0.5L55.7,0.5L55.7,0.5L55.7,0.5z"/>
</g>
</svg>
