<?xml version="1.0" encoding="utf-8"?>
<!-- Generator: Adobe Illustrator 19.0.0, SVG Export Plug-In . SVG Version: 6.00 Build 0)  -->
<svg version="1.1" id="图层_1" xmlns="http://www.w3.org/2000/svg" xmlns:xlink="http://www.w3.org/1999/xlink" x="0px" y="0px"
	 viewBox="-45 53.7 49.8 35" style="enable-background:new -45 53.7 49.8 35;" xml:space="preserve">
<style type="text/css">
	.st0{fill:#9FA0A0;}
</style>
<g id="XMLID_27_">
	<path id="XMLID_28_" class="st0" d="M4.8,56.6v27.9c0,0.3,0,0.6-0.1,0.8l0,0l0,0c-0.4,1.9-2.1,3.3-4,3.3h-40.8
		c-1.4,0-2.8-0.6-3.7-1.7l-0.1-0.1c-0.1,0.1-0.1,0-0.2-0.1c-0.6-0.8-0.9-1.8-0.9-2.8V57.4c0-1.6,1-3,2.5-3.4l0,0l0,0
		c0.7-0.2,1.3-0.3,1.9-0.3H2.3c0.1,0,0.1,0.1,0.2,0.1c1.2,0.2,2,0.9,2.2,2.2l0,0C4.7,56.2,4.8,56.4,4.8,56.6L4.8,56.6z M-20.1,74.7
		L1.8,56.2c-3.2-0.2-43.2-0.1-43.6,0.1C-34.6,62.4-27.4,68.5-20.1,74.7L-20.1,74.7z M-13.6,72.5c-1.9,1.6-3.7,3.1-5.5,4.7
		c-0.7,0.6-1.2,0.6-1.9,0c-0.8-0.7-1.6-1.3-2.3-2c-1-0.9-2.1-1.7-3.1-2.6L-41.1,86c0,0,0,0.1,0.1,0.1H1.4L-13.6,72.5z M-28.4,70.9
		c-4.7-4-9.4-7.9-14.1-11.9v24.9L-28.4,70.9z M-11.7,70.8l14,12.7V59.1L-11.7,70.8z"/>
</g>
</svg>
