<?xml version="1.0" encoding="utf-8"?>
<!-- Generator: Adobe Illustrator 19.0.0, SVG Export Plug-In . SVG Version: 6.00 Build 0)  -->
<svg version="1.1" id="图层_1" xmlns="http://www.w3.org/2000/svg" xmlns:xlink="http://www.w3.org/1999/xlink" x="0px" y="0px"
	 viewBox="0 0 17.1 17.1" style="enable-background:new 0 0 17.1 17.1;" xml:space="preserve">
<style type="text/css">
	.st0{fill-rule:evenodd;clip-rule:evenodd;fill:#C9CACA;}
</style>
<g id="XMLID_33_">
	<g id="XMLID_2_">
		<path id="XMLID_9_" class="st0" d="M16.8,6.3c-0.4-1.5-1.2-2.8-2.3-3.9c-1.2-1.2-2.8-2-4.4-2.3C9.2,0,8.3,0,7.4,0.1
			C5.7,0.3,4.2,1,2.9,2.1c-0.6,0.5-1,1-1.5,1.7C1.4,3.9,1.3,4,1.2,4.1C1.1,4.4,1,4.6,0.8,4.9C0.4,5.8,0.1,6.7,0,7.6
			C0,8.5,0,9.4,0.2,10.2c0.3,1.6,1.1,3.1,2.2,4.2c1.2,1.2,2.8,2.1,4.4,2.5c0.8,0.2,1.6,0.2,2.4,0.1c1.3-0.1,2.6-0.5,3.7-1.2
			c1-0.6,1.9-1.4,2.5-2.3c0-0.1,0.1-0.1,0.1-0.2c0.1-0.2,0.2-0.4,0.4-0.5c0.3-0.6,0.6-1.2,0.8-1.8C17.2,9.5,17.2,7.8,16.8,6.3z
			 M13.5,11.7c-0.1,0.1-0.2,0.3-0.3,0.4c-0.5,0.6-1.1,1.1-1.8,1.5c-0.8,0.4-1.6,0.7-2.5,0.7c-1,0.1-2-0.1-2.9-0.6
			c-0.9-0.4-1.6-1-2.2-1.8c-0.5-0.6-0.8-1.4-1-2.1C2.6,8.8,2.6,7.6,3.1,6.5c0.1-0.3,0.3-0.6,0.4-0.9c0.1-0.2,0.2-0.3,0.3-0.5
			c0.4-0.6,0.9-1.1,1.5-1.5C5.8,3.4,6.4,3.1,7,2.9c1-0.3,2.1-0.3,3.2,0c0.8,0.2,1.6,0.6,2.3,1.2c0.7,0.6,1.2,1.3,1.6,2.1
			c0.4,0.9,0.5,2,0.4,3C14.3,10.1,13.9,11,13.5,11.7z"/>
		<path id="XMLID_10_" class="st0" d="M11.8,7.4c-0.2-0.1-0.4-0.2-0.5-0.4C10.1,6.3,9,5.5,7.9,4.8C7.7,4.7,7.6,4.6,7.4,4.5
			C6.9,4.3,6.4,4.4,6.1,4.7C5.7,5,5.6,5.4,5.6,5.8c0,0.4,0.2,0.7,0.5,0.9C6.2,6.8,6.3,6.9,6.4,7C7.2,7.5,8,8,8.8,8.5
			C7.9,9.1,7,9.7,6.2,10.3c-0.3,0.2-0.5,0.5-0.6,0.8c-0.1,0.4,0,0.8,0.2,1.1c0.2,0.3,0.5,0.5,0.9,0.5c0.3,0.1,0.7,0,0.9-0.2
			c1.1-0.8,2.3-1.5,3.4-2.3c0.2-0.2,0.5-0.3,0.7-0.5c0.3-0.2,0.5-0.4,0.6-0.7c0.1-0.3,0.1-0.6,0-0.9C12.3,7.8,12,7.5,11.8,7.4z"/>
	</g>
</g>
</svg>
