<?xml version="1.0" encoding="utf-8"?>
<!-- Generator: Adobe Illustrator 19.0.0, SVG Export Plug-In . SVG Version: 6.00 Build 0)  -->
<svg version="1.1" id="图层_1" xmlns="http://www.w3.org/2000/svg" xmlns:xlink="http://www.w3.org/1999/xlink" x="0px" y="0px"
	 viewBox="0 0 19.4 15.6" style="enable-background:new 0 0 19.4 15.6;" xml:space="preserve">
<style type="text/css">
	.st0{fill-rule:evenodd;clip-rule:evenodd;fill:#C9CACA;}
</style>
<g id="XMLID_23_">
	<g id="XMLID_2_">
		<path id="XMLID_13_" class="st0" d="M18.6,7C18.5,7,18.5,7,18.6,7c-0.1,0-0.2,0-0.2,0H18.6z"/>
		<path id="XMLID_16_" class="st0" d="M12.9,0.9C12.9,0.8,12.9,0.8,12.9,0.9c0-0.1,0-0.1,0-0.2V0.9z"/>
		<path id="XMLID_19_" class="st0" d="M18,1.5C16.2-0.2,13.7,0,13.7,0c-0.4,0-0.8,0.3-0.8,0.8c0,0.4,0.4,0.7,0.8,0.7
			c0,0,2.4-0.3,3.5,1.3c1.1,1.6,0.7,3.4,0.7,3.4c-0.1,0.4,0.2,0.8,0.6,0.8c0.4,0,0.8-0.4,0.8-0.8C19.3,6.2,19.9,3.3,18,1.5z"/>
		<path id="XMLID_20_" class="st0" d="M13.4,3.4C13.4,3.3,13.4,3.3,13.4,3.4c0-0.1,0-0.1,0-0.2V3.4z"/>
		<path id="XMLID_24_" class="st0" d="M16,6.3L16,6.3c0.4,0,0.7-0.2,0.7-0.6c0,0,0.4-1.5-0.6-2.4c-1-0.9-2.2-0.6-2.2-0.6
			c-0.3,0-0.5,0.3-0.5,0.5c0,0.3,0.2,0.5,0.5,0.5c0,0,1-0.1,1.5,0.5c0.5,0.6,0.2,1.5,0.2,1.5C15.5,6.1,15.7,6.3,16,6.3z"/>
		<path id="XMLID_27_" class="st0" d="M14,7.3c0-0.2,1.6-1.7,0-2.6C12.4,3.7,9.4,5.2,9.5,5C10.8,2.8,9,2.1,8,2.1c-2.2,0-8,4.9-8,8
			s3.9,5.6,8.7,5.6c4.8,0,8.6-2.5,8.6-5.6C17.3,7.5,14,7.5,14,7.3z M8.9,14c-3.1,0.4-5.8-0.8-6-2.8c-0.3-2,2-3.9,5-4.4
			c3.1-0.4,5.8,0.8,6,2.8C14.2,11.6,11.9,13.5,8.9,14z"/>
		<path id="XMLID_30_" class="st0" d="M7.3,7.9c-1.8,0.4-3.1,1.9-2.8,3.4c0.3,1.5,2,2.5,3.8,2.1c1.8-0.4,3.1-1.9,2.8-3.4
			C10.8,8.5,9.1,7.6,7.3,7.9z M7.1,11.9c-0.6,0.3-1.2,0.1-1.4-0.3c-0.2-0.4,0.1-1,0.7-1.2c0.6-0.3,1.2-0.1,1.4,0.3
			C7.9,11.1,7.7,11.6,7.1,11.9z M8.4,10.6c-0.3,0-0.6-0.3-0.6-0.6c0-0.3,0.3-0.6,0.6-0.6c0.3,0,0.6,0.3,0.6,0.6
			C8.9,10.4,8.7,10.6,8.4,10.6z"/>
	</g>
</g>
</svg>
