<?xml version="1.0" encoding="utf-8"?>
<!-- Generator: Adobe Illustrator 19.0.0, SVG Export Plug-In . SVG Version: 6.00 Build 0)  -->
<svg version="1.1" id="图层_1" xmlns="http://www.w3.org/2000/svg" xmlns:xlink="http://www.w3.org/1999/xlink" x="0px" y="0px"
	 viewBox="0 0 17.2 16.8" style="enable-background:new 0 0 17.2 16.8;" xml:space="preserve">
<style type="text/css">
	.st0{fill-rule:evenodd;clip-rule:evenodd;fill:#8f9092;}
</style>
<g id="XMLID_22_">
	<g id="XMLID_3_">
		<path id="XMLID_18_" class="st0" d="M11.4,6.6c0.2,0,0.4-0.1,0.6-0.2c0.2-0.1,0.4-0.3,0.6-0.4v0.5h1V1.7h-1v3.6
			c-0.1,0.1-0.2,0.2-0.3,0.3c-0.1,0.1-0.2,0.1-0.3,0.1c-0.1,0-0.2,0-0.2-0.1c0-0.1-0.1-0.1-0.1-0.2V1.7h-1v4c0,0.3,0.1,0.5,0.2,0.6
			C11,6.5,11.1,6.6,11.4,6.6z"/>
		<path id="XMLID_37_" class="st0" d="M8.5,6.6c0.4,0,0.8-0.1,1.1-0.4c0.3-0.2,0.4-0.6,0.4-1V2.8c0-0.4-0.1-0.7-0.4-0.9
			c-0.3-0.2-0.6-0.3-1-0.3c-0.4,0-0.8,0.1-1.1,0.3C7.2,2.1,7,2.4,7,2.8v2.5c0,0.4,0.1,0.7,0.4,1C7.7,6.5,8,6.6,8.5,6.6z M8.1,2.8
			c0-0.1,0-0.2,0.1-0.3c0.1-0.1,0.2-0.1,0.3-0.1c0.1,0,0.2,0,0.3,0.1c0.1,0.1,0.1,0.1,0.1,0.3v2.6c0,0.1,0,0.2-0.1,0.3
			C8.7,5.8,8.6,5.8,8.5,5.8c-0.1,0-0.2,0-0.3-0.1C8.1,5.6,8.1,5.5,8.1,5.4V2.8z"/>
		<polygon id="XMLID_38_" class="st0" points="4.6,6.5 5.7,6.5 5.7,3.8 7,0 5.8,0 5.2,2.6 5.1,2.6 4.4,0 3.3,0 4.6,3.9 		"/>
		<path id="XMLID_39_" class="st0" d="M10.2,11.3c-0.1,0-0.1,0-0.2,0c-0.1,0-0.1,0.1-0.2,0.1v2.7c0.1,0.1,0.1,0.1,0.2,0.2
			c0.1,0,0.1,0,0.2,0c0.1,0,0.2,0,0.2-0.1s0.1-0.2,0.1-0.3v-2.2c0-0.1,0-0.3-0.1-0.3C10.4,11.4,10.3,11.3,10.2,11.3z"/>
		<path id="XMLID_40_" class="st0" d="M13.6,11.8c0-0.2,0-0.3-0.1-0.4c-0.1-0.1-0.2-0.1-0.3-0.1c-0.1,0-0.2,0-0.3,0.1
			c-0.1,0.1-0.1,0.2-0.1,0.4v0.4h0.8V11.8z"/>
		<path id="XMLID_44_" class="st0" d="M14.1,8H3.1C1.4,8,0,9.4,0,11.2v2.5c0,1.7,1.4,3.1,3.1,3.1h10.9c1.7,0,3.1-1.4,3.1-3.1v-2.5
			C17.2,9.4,15.8,8,14.1,8z M5.5,10h-1v5h-1v-5h-1V9.1h3V10z M8.3,15H7.5v-0.5c-0.2,0.2-0.3,0.3-0.5,0.4c-0.2,0.1-0.3,0.1-0.5,0.1
			c-0.2,0-0.4-0.1-0.5-0.2c-0.1-0.1-0.2-0.3-0.2-0.6v-3.6h0.9V14c0,0.1,0,0.2,0.1,0.2c0,0,0.1,0.1,0.2,0.1c0.1,0,0.1,0,0.2-0.1
			c0.1-0.1,0.2-0.1,0.3-0.2v-3.3h0.9V15z M11.5,14.1c0,0.3-0.1,0.5-0.2,0.7c-0.1,0.2-0.3,0.2-0.6,0.2c-0.2,0-0.3,0-0.5-0.1
			c-0.1-0.1-0.3-0.2-0.4-0.3V15H9V9.1h0.9V11c0.1-0.1,0.2-0.2,0.4-0.3c0.1-0.1,0.3-0.1,0.4-0.1c0.3,0,0.5,0.1,0.6,0.3
			c0.1,0.2,0.2,0.5,0.2,0.8V14.1z M14.5,13.8c0,0.4-0.1,0.8-0.3,1c-0.2,0.2-0.5,0.3-1,0.3c-0.4,0-0.7-0.1-0.9-0.4
			c-0.2-0.2-0.3-0.6-0.3-1v-1.9c0-0.4,0.1-0.7,0.4-0.9c0.2-0.2,0.6-0.4,0.9-0.4c0.4,0,0.7,0.1,0.9,0.3c0.2,0.2,0.3,0.5,0.3,0.9v1.1
			h-1.7v0.8c0,0.2,0,0.4,0.1,0.5c0.1,0.1,0.2,0.1,0.3,0.1c0.1,0,0.2,0,0.3-0.1c0.1-0.1,0.1-0.2,0.1-0.5v-0.2h0.9V13.8z"/>
	</g>
</g>
</svg>
