<?xml version="1.0" encoding="utf-8"?>
<!-- Generator: Adobe Illustrator 19.0.0, SVG Export Plug-In . SVG Version: 6.00 Build 0)  -->
<svg version="1.1" id="图层_1" xmlns="http://www.w3.org/2000/svg" xmlns:xlink="http://www.w3.org/1999/xlink" x="0px" y="0px"
	 viewBox="0 0 17 14.7" style="enable-background:new 0 0 17 14.7;" xml:space="preserve">
<style type="text/css">
	.st0{fill-rule:evenodd;clip-rule:evenodd;fill:#8f9092;}
</style>
<g id="XMLID_11_">
	<path id="XMLID_873_" class="st0" d="M3.7,3.5c2.7,1.4,5,1.3,5,1.3s-0.9-3,1.8-4.3c2.7-1.3,4.5,0.9,4.5,0.9s0.5-0.1,0.8-0.3
		c0.3-0.1,0.8-0.4,0.8-0.4l-0.8,1.5L17,2.1c0,0-0.2,0.2-0.7,0.7c-0.5,0.5-0.7,0.7-0.7,0.7s0.2,3.6-1.7,6.4C12,12.6,9.5,14.3,6,14.6
		c-3.6,0.4-5.9-1.1-5.9-1.1s1.6-0.1,2.6-0.5c1-0.4,2.4-1.4,2.4-1.4s-2-0.6-2.8-1.3C1.6,9.7,1.4,9.2,1.4,9.2l2,0c0,0-2.1-1.1-2.7-2
		C0.1,6.3,0,5.5,0,5.5l1.5,0.6c0,0-1.3-1.7-1.5-3.1c-0.2-1.4,0.2-2.1,0.2-2.1S1,2.1,3.7,3.5z"/>
</g>
</svg>
