<?xml version="1.0" encoding="utf-8"?>
<!-- Generator: Adobe Illustrator 19.0.0, SVG Export Plug-In . SVG Version: 6.00 Build 0)  -->
<svg version="1.1" id="图层_1" xmlns="http://www.w3.org/2000/svg" xmlns:xlink="http://www.w3.org/1999/xlink" x="0px" y="0px"
	 viewBox="0 0 50.6 51.2" style="enable-background:new 0 0 50.6 51.2;" xml:space="preserve">
<style type="text/css">
	.st0{fill-rule:evenodd;clip-rule:evenodd;fill:#B5B5B6;}
</style>
<g id="XMLID_1496_">
	<path id="XMLID_1499_" class="st0" d="M33,28.5c4.5-2.7,7.6-7.5,7.6-13.2C40.6,6.9,33.8,0,25.3,0S10,6.9,10,15.3
		c0,8.4,6.8,15.2,15.1,15.3c0.1,0,0.1,0,0.2,0c10.3,0,19.2,7.2,21.5,17.1H3.8c1.3-5.3,4.4-10,8.9-13.1c0.8-0.5,1-1.6,0.4-2.4
		c-0.5-0.8-1.6-1-2.4-0.4C4.9,36,1,42.2,0,49.2c-0.1,0.5,0.1,1,0.4,1.4c0.3,0.4,0.8,0.6,1.3,0.6h47.2c0.5,0,1-0.2,1.3-0.6
		c0.3-0.4,0.5-0.9,0.4-1.4C49.2,39.4,42.1,31.4,33,28.5L33,28.5z M13.4,15.3c0-6.6,5.4-11.9,11.9-11.9s11.9,5.4,11.9,11.9
		c0,6.6-5.4,11.9-11.9,11.9S13.4,21.9,13.4,15.3L13.4,15.3z"/>
</g>
</svg>
