<?xml version="1.0" encoding="utf-8"?>
<!-- Generator: Adobe Illustrator 19.0.0, SVG Export Plug-In . SVG Version: 6.00 Build 0)  -->
<svg version="1.1" id="图层_1" xmlns="http://www.w3.org/2000/svg" xmlns:xlink="http://www.w3.org/1999/xlink" x="0px" y="0px"
	 viewBox="0 0 47.7 47.8" style="enable-background:new 0 0 47.7 47.8;" xml:space="preserve">
<style type="text/css">
	.st0{fill-rule:evenodd;clip-rule:evenodd;fill:#B5B5B6;}
</style>
<g id="XMLID_17_">
	<g id="XMLID_28_">
		<path id="XMLID_3_" class="st0" d="M43.1,8.9h-1.7c0.8-1.4,1.2-2.8,1.1-4.1c-0.1-1.1-0.6-2.6-2.5-3.8c-1.5-1-3.5-1.3-5.7-0.7
			c-3.6,0.9-7.8,4-10.5,7.7c-2.8-3.7-7-6.8-10.5-7.7C11.1-0.3,9.2,0,7.6,1C5.8,2.2,5.3,3.7,5.2,4.8C5.1,6.1,5.4,7.5,6.3,8.9H4.6
			C2.1,8.9,0,11,0,13.5v5.9c0,2,1.3,3.8,3.2,4.4c-0.2,0.5-0.3,1-0.3,1.6v17.8c0,2.5,2.1,4.6,4.6,4.6h32.6c2.5,0,4.6-2.1,4.6-4.6
			V25.4c0-0.5-0.1-1.1-0.3-1.6c1.9-0.6,3.2-2.4,3.2-4.4v-5.9C47.7,11,45.7,8.9,43.1,8.9L43.1,8.9z M40.2,44.5H25.5V24h14.7
			c0.7,0,1.3,0.6,1.3,1.3v17.8C41.5,43.9,40.9,44.5,40.2,44.5L40.2,44.5z M27.3,8.9c2.3-2.7,5.4-4.8,7.9-5.4
			c1.3-0.3,2.3-0.2,3.1,0.3c0.8,0.5,1,1,1,1.4c0.1,1.3-1.3,3.1-2,3.8L27.3,8.9 M44.4,13.5v5.9c0,0.7-0.6,1.3-1.3,1.3H25.5v-8.6h17.6
			C43.8,12.2,44.4,12.8,44.4,13.5L44.4,13.5z M22.2,24v20.4H7.6c-0.7,0-1.3-0.6-1.3-1.3V25.4c0-0.7,0.6-1.3,1.3-1.3L22.2,24L22.2,24
			 M8.4,5.1c0-0.4,0.2-0.8,1-1.4c0.8-0.5,1.8-0.6,3.1-0.3c2.5,0.6,5.5,2.7,7.9,5.4h-10C9.8,8.3,8.3,6.5,8.4,5.1L8.4,5.1z M3.3,13.5
			c0-0.7,0.6-1.3,1.3-1.3h17.6v8.6H4.6c-0.7,0-1.3-0.6-1.3-1.3V13.5"/>
	</g>
</g>
</svg>
