<?xml version="1.0" encoding="utf-8"?>
<!-- Generator: Adobe Illustrator 19.0.0, SVG Export Plug-In . SVG Version: 6.00 Build 0)  -->
<svg version="1.1" id="图层_1" xmlns="http://www.w3.org/2000/svg" xmlns:xlink="http://www.w3.org/1999/xlink" x="0px" y="0px"
	 viewBox="-44 40.7 52 60" style="enable-background:new -44 40.7 52 60;" xml:space="preserve">
<style type="text/css">
	.st0{fill:#9FA0A0;}
</style>
<path id="XMLID_35_" class="st0" d="M-18,100.7c-9.1,0-26-13.4-26-26.2V50.3c0-0.6,0.5-1.1,1.1-1.1h1.5c0.1,0,5.8-0.1,11.8-2.5
	c6.1-2.4,10-5.2,10.1-5.2l0.9-0.6c0.1-0.1,0.4-0.2,0.6-0.2s0.5,0.1,0.7,0.2l0.9,0.6c0,0,4,2.8,10.1,5.2c6,2.3,11.7,2.5,11.8,2.5H7
	c0.5,0,1,0.5,1,1.1v24.3C8,87.3-8.9,100.7-18,100.7L-18,100.7z M4,53.1c-2.2-0.2-6.9-0.7-11.8-2.7c-5-2-8.7-4.2-10.2-5.1
	c-1.5,1-5.2,3.2-10.2,5.1c-4.8,1.9-9.5,2.5-11.8,2.7v21.4c0,10,14.7,22.2,22,22.2c2.8,0,8.3-2.3,13.7-7.3C0.9,84.6,4,79,4,74.5V53.1
	z M-20.1,78.6c-0.4,0.4-0.9,0.6-1.4,0.6s-1-0.2-1.4-0.6l-6-6c-0.8-0.8-0.8-2,0-2.8c0.8-0.8,2-0.8,2.8,0l4.6,4.6l11.6-11.6
	c0.8-0.8,2-0.8,2.8,0s0.8,2,0,2.8L-20.1,78.6z"/>
</svg>
