<?xml version="1.0" encoding="utf-8"?>
<!-- Generator: Adobe Illustrator 19.0.0, SVG Export Plug-In . SVG Version: 6.00 Build 0)  -->
<svg version="1.1" id="图层_1" xmlns="http://www.w3.org/2000/svg" xmlns:xlink="http://www.w3.org/1999/xlink" x="0px" y="0px"
	 viewBox="0 0 65.3 60" style="enable-background:new 0 0 65.3 60;" xml:space="preserve">
<style type="text/css">
	.st0{fill:#DD5419;}
</style>
<path id="XMLID_5_" class="st0" d="M47,28c1.1,0.5,2.4,0.8,3.8,0.9c1.6,0.1,3.2,0,5-0.5c2.1-0.6,4.1-1.7,5.8-3.1
	c1.6-1.4,2.9-3.2,3.7-5.3c0.1-0.3,0.1-0.7,0-1c-0.1-0.3-0.4-0.6-0.7-0.7c0,0-0.1,0-0.1,0c-0.1,0-0.3-0.1-0.4-0.1h-0.1
	c-0.1,0-0.1,0-0.2,0c0,0-0.1,0-0.1,0L56,20.4l-5.2-5.2l1.9-7l7.7-2C60.8,6,61,5.7,61.2,5.4c0.2-0.3,0.2-0.6,0.1-1
	c0-0.2-0.2-0.5-0.5-0.7C59.1,2.4,57.1,1.4,55,1c-2.3-0.5-4.5-0.4-6.5,0.2c-3.7,1-6.7,3.3-8.6,6.5c-1.9,3.1-2.4,7-1.5,10.7l0.1,0.3
	L35,22.3l-9.6-9.5l0.1-0.1c0.1-0.2,0.3-0.4,0.4-0.7l0.1-0.1c0-0.1,0-0.1,0.1-0.2l0.2-0.5l0-0.1c0.3-0.7,0.6-1.5,0.7-2l0.1-0.3
	c0,0,0,0,0-0.1l0-0.1c0.6-1,1.3-1.7,2.2-2.1C30,6.1,31,6,32.2,6c0.2,0,0.5,0,0.9,0h0.2c0.3,0,0.7-0.2,0.9-0.4
	c0.2-0.2,0.4-0.6,0.4-0.9c0-0.3-0.1-0.7-0.4-0.9c-2.3-2.2-4.9-3.5-7.5-3.7c-0.2,0-0.4,0-0.6,0c-2.3,0-4.5,0.9-6.6,2.7l-0.1,0
	c-0.5,0.1-1,0.4-1.5,0.7c-0.1,0-0.2,0.1-0.3,0.1c-0.2,0.1-0.5,0.2-0.6,0.3l-0.2,0.1L15.8,3c-0.2-0.3-0.5-0.4-0.9-0.4
	c-0.4,0-0.7,0.1-0.9,0.4L7.1,9.8c-0.2,0.2-0.4,0.5-0.4,0.9c0,0.4,0.1,0.7,0.4,0.9l1,0.9l-0.4,0.6c-0.2,0.3-0.4,0.7-0.6,1.1L7,14.4
	c-0.2,0.1-0.4,0.2-0.7,0.2c-0.3,0.1-0.6,0.1-1.2,0.1H4.6c-0.4,0-0.7,0.1-0.9,0.4l-3.4,3.4C0.2,18.7,0,19,0,19.4
	c0,0.3,0.1,0.7,0.4,0.9l4,4c0,0,0.1,0.1,0.1,0.1l0.1,0c0,0.1,0.1,0.1,0.1,0.2l4,4C8.8,28.8,9.1,29,9.6,29c0.4,0,0.7-0.1,0.9-0.4
	l3.3-3.3c0.3-0.3,0.4-0.6,0.4-1.1c0-0.3,0-0.7,0.2-1.2c0,0,0-0.1,0-0.1l0.4-0.8l0.1,0c0.2-0.1,0.4-0.2,0.5-0.3
	c0.1,0,0.1-0.1,0.2-0.1c0.1,0,0.1-0.1,0.2-0.1l0.8-0.5l9.6,9.6L6.6,50.3c-0.5,0.6-0.5,1.4,0,1.9l6.9,6.8c0.2,0.3,0.5,0.4,0.9,0.4
	c0.3,0,0.6,0,0.9-0.4L35,39.6l20.1,20.1c0.2,0.2,0.5,0.4,0.9,0.4c0.4,0,0.7-0.1,0.9-0.4c0,0,0,0,0-0.1l6.9-6.7
	c0.3-0.3,0.4-0.6,0.4-0.9c0-0.4-0.2-0.7-0.4-0.9L43.7,31l3.1-3.1L47,28z M41.2,18.7l-0.3-0.9c0,0,0-0.1,0-0.1
	c-0.8-3-0.3-6.1,1.2-8.7c1.5-2.6,4-4.5,7-5.4c1-0.3,2-0.4,3-0.4c0.7,0,1.5,0.1,2.3,0.2c0,0,0.1,0,0.1,0c0.6,0.2,1.1,0.4,1.6,0.5
	L57,4.2l-1.4,0.3l-4.3,1.2c-0.6,0.2-0.9,0.6-0.9,0.9l-2.2,8.5c-0.2,0.4-0.1,0.9,0.3,1.3l6.2,6.1c0.1,0.1,0.4,0.5,0.9,0.5
	c0.1,0,0.3,0,0.3,0l5.6-1.5l-0.6,0.7c-0.4,0.5-0.9,1-1.2,1.3c-1.3,1.1-2.9,2-4.7,2.5c-1,0.3-2,0.4-3.1,0.4c-0.3,0-0.7,0-1,0
	c-1.3-0.1-2.7-0.5-3.9-1.1c0,0-0.1,0-0.1,0c-0.5-0.2-1.1-0.1-1.5,0.2l-31.1,31l-4.9-5L40.9,20C41.3,19.6,41.4,19.1,41.2,18.7z
	 M10,14.9c0-0.1,0,0,0-0.1c0,0,0-0.1,0-0.1c0,0,0-0.1,0-0.1c0,0,0-0.1,0-0.1l0-0.1c0,0,0,0,0,0l0,0c0.1-0.1,0.1-0.2,0.2-0.3
	c0.2-0.3,0.3-0.6,0.5-0.9c0.3-0.5,0.3-1.1-0.1-1.5c0,0-0.1-0.1-0.1-0.1c0,0-0.1,0-0.1-0.1L9.9,11l5-5l0.7,0.7
	c0.2,0.2,0.5,0.4,0.9,0.4c0.3,0,0.6,0,0.7-0.2c0.5-0.3,1-0.6,1.7-1c0.4-0.2,1-0.5,1.5-0.6c0.1,0,0.3-0.1,0.4-0.3C21,5,21,5,21,4.9
	c1.5-1.4,3.3-2.2,5-2.2l0.4,0C27.2,2.8,28,3,29,3.4l0.6,0.2L29,3.9c-0.1,0-0.1,0-0.2,0.1c-0.1,0-0.2,0.1-0.3,0.1
	c-0.1,0-0.3,0.1-0.3,0.1c-1.3,0.6-2.5,1.7-3.5,3.4c0,0.1-0.1,0.1-0.1,0.2c0,0.1,0,0,0,0.1c0,0.1,0,0.1,0,0.1c-0.1,0.5-0.3,1-0.5,1.6
	l-0.1,0.3c0,0-0.1,0.1-0.1,0.2l0,0.1c-0.4,0.8-0.9,1.5-1.2,2.1c-0.3,0.5-0.3,1.2,0.2,1.6l10.3,10.2l-5,5L17.7,18.8
	c-0.3-0.3-0.6-0.4-0.9-0.4c-0.5,0-0.7,0.2-0.8,0.5l0,0c-0.4,0.3-0.7,0.5-1,0.6l-0.4,0.2c-0.3,0.2-0.6,0.3-0.9,0.4
	c-0.3,0.1-0.4,0.3-0.6,0.4c-0.4,0.5-0.8,1.1-1,1.7c-0.2,0.5-0.3,1-0.3,1.6V24l-2.1,2l-3.1-3c0,0-0.1-0.1-0.1-0.1l0,0c0,0,0,0,0-0.1
	l-0.2-0.3l-3-2.9l2.1-2h0.1c0.6,0,1.2-0.1,1.7-0.2c0.7-0.2,1.4-0.5,2.1-1.1l0.1-0.1c0.1-0.1,0.2-0.2,0.2-0.4
	C9.7,15.5,9.8,15.2,10,14.9z M41.8,32.7L61,51.9l-5,5L36.7,37.8L41.8,32.7z"/>
</svg>
