<?xml version="1.0" encoding="utf-8"?>
<!-- Generator: Adobe Illustrator 19.0.0, SVG Export Plug-In . SVG Version: 6.00 Build 0)  -->
<svg version="1.1" id="图层_1" xmlns="http://www.w3.org/2000/svg" xmlns:xlink="http://www.w3.org/1999/xlink" x="0px" y="0px"
	 viewBox="0 0 59 60" style="enable-background:new 0 0 59 60;" xml:space="preserve">
<style type="text/css">
	.st0{fill-rule:evenodd;clip-rule:evenodd;fill:#E95513;}
</style>
<g id="XMLID_220_">
	<path id="XMLID_242_" class="st0" d="M59,13.4h-0.1H59L29.9,0L0,13.7l0.1,0v32.6l28.3,13.6V60l0.1,0l0,0l0,0L59,46V13.4L59,13.4z
		 M53.4,13.4l-6.3,3L23,5.8l6.9-3.1L53.4,13.4L53.4,13.4z M14.9,9.5l23.5,11.1l-8.6,4.1l-24.3-11L14.9,9.5L14.9,9.5z M2.6,44.8v-30
		l26.2,12l0,30.5L2.6,44.8L2.6,44.8z M31.5,56.2l0-29.5l9.1-4.5l0.1,14.4l7.8-4.3V18.3l7.9-3.9v30L31.5,56.2L31.5,56.2z"/>
</g>
</svg>
