<?xml version="1.0" encoding="utf-8"?>
<!-- Generator: Adobe Illustrator 19.0.0, SVG Export Plug-In . SVG Version: 6.00 Build 0)  -->
<svg version="1.1" id="图层_1" xmlns="http://www.w3.org/2000/svg" xmlns:xlink="http://www.w3.org/1999/xlink" x="0px" y="0px"
	 viewBox="0 0 60 60" style="enable-background:new 0 0 60 60;" xml:space="preserve">
<style type="text/css">
	.st0{fill-rule:evenodd;clip-rule:evenodd;fill:#E95513;}
</style>
<g id="XMLID_255_">
	<path id="XMLID_485_" class="st0" d="M56.3,47.1c-2.3-3.4-5.5-6.2-9.6-8.2l-0.2-0.1l-0.2,0.2C41.8,43,36,45.3,29.9,45.3
		C23.8,45.3,18,43,13.5,39l-0.2-0.2l-0.2,0.1c-4.1,2-7.3,4.8-9.5,8.2C1.2,50.8,0,55,0,59.6V60h60v-0.4C60,55,58.8,50.7,56.3,47.1
		L56.3,47.1z M56.4,56.9H3.7c0.9-6.9,5.6-11.8,9.6-14.1c5,3.6,10.2,5.3,17,5.3c5.9,0,12.4-2.3,16.7-5.8
		C52.2,45.3,56.1,51.4,56.4,56.9L56.4,56.9z"/>
	<path id="XMLID_484_" class="st0" d="M10.6,30.9H11V15.1l-0.4,0C14.2,7.9,21.7,3.2,29.9,3.2c8.2,0,15.7,4.6,19.3,11.8l-0.4,0v15.8
		h0.4c4.4,0,8.1-3.5,8.1-7.9c0-2.8-1.5-5.4-4-6.9c-1.7-4.7-4.7-8.7-8.8-11.6C40.2,1.6,35.2,0,29.9,0c-5.2,0-10.3,1.6-14.5,4.6
		c-4.1,2.9-7.2,6.9-8.8,11.6c-1.2,0.7-2.2,1.6-2.9,2.8C3,20.2,2.6,21.6,2.6,23C2.6,27.4,6.2,30.9,10.6,30.9L10.6,30.9z"/>
	<path id="XMLID_256_" class="st0" d="M29.9,7.6c-9.4,0-17,7.5-17,16.7c0,4.5,1.8,8.7,5,11.8c3.2,3.2,7.5,4.9,12.1,4.9
		c9.4,0,17-7.5,17-16.7C46.9,15,39.3,7.6,29.9,7.6L29.9,7.6z M43.4,24.2c0,7.3-6.1,13.3-13.5,13.3c-7.5,0-13.6-6-13.6-13.3
		c0-7.2,6.2-13.3,13.6-13.3C37.3,10.9,43.4,16.9,43.4,24.2L43.4,24.2z"/>
</g>
</svg>
