<?xml version="1.0" encoding="utf-8"?>
<!-- Generator: Adobe Illustrator 19.0.0, SVG Export Plug-In . SVG Version: 6.00 Build 0)  -->
<svg version="1.1" id="图层_1" xmlns="http://www.w3.org/2000/svg" xmlns:xlink="http://www.w3.org/1999/xlink" x="0px" y="0px"
	 viewBox="-46 40.7 47.7 60" style="enable-background:new -46 40.7 47.7 60;" xml:space="preserve">
<style type="text/css">
	.st0{fill:#9FA0A0;}
</style>
<g id="XMLID_2_">
	<path id="XMLID_3_" class="st0" d="M-37.8,100.7h-3.5c-2.6,0-4.7-2.1-4.7-4.6V69.4c0-1.2,0.5-2.4,1.4-3.2c0.9-0.9,2-1.4,3.3-1.4
		h3.6v-0.7v-2.5v-5.8c0-4,1.7-7.8,4.6-10.7c2.9-2.9,6.8-4.4,11-4.4s8,1.6,10.9,4.5s4.5,6.7,4.5,10.8c0,0,0,0.1,0,0.2
		c0,1.1-0.9,1.9-2,1.9s-2-0.9-2-1.9l0,0c0,0,0-0.5,0-0.9c-0.4-6-5.4-10.7-11.5-10.7c-6.4,0-11.6,5.1-11.7,11.3v8.8H-3
		c1.2,0,2.4,0.5,3.3,1.3c0.9,0.8,1.4,2,1.4,3.2V96c0,2.5-2.2,4.6-4.8,4.6L-37.8,100.7L-37.8,100.7z M-2.3,71.8
		c0-1.7-1.4-3.2-3.2-3.2h-33.3c-1.7,0-3.2,1.4-3.2,3.2v21.9c0,1.7,1.4,3.2,3.2,3.2h33.3c1.7,0,3.2-1.4,3.2-3.2V71.8L-2.3,71.8z"/>
</g>
</svg>
