<?xml version="1.0" encoding="utf-8"?>
<!-- Generator: Adobe Illustrator 19.0.0, SVG Export Plug-In . SVG Version: 6.00 Build 0)  -->
<svg version="1.1" id="图层_1" xmlns="http://www.w3.org/2000/svg" xmlns:xlink="http://www.w3.org/1999/xlink" x="0px" y="0px"
	 viewBox="0 0 40 40" style="enable-background:new 0 0 40 40;" xml:space="preserve">
<style type="text/css">
	.st0{fill:#F7F7F7;}
</style>
<path class="st0" d="M20,0C8.9,0,0,8.9,0,20c0,11.1,8.9,20,20,20c11.1,0,20-8.9,20-20C40,8.9,31.1,0,20,0L20,0z M28.6,20.8
	l-12.7,7.3c-0.5,0.3-1,0.1-1.3-0.4c-0.1-0.1-0.1-0.3-0.1-0.5V12.7c0-0.2,0-0.3,0.1-0.4c0.1-0.2,0.3-0.4,0.5-0.4
	c0.3-0.1,0.5-0.1,0.8,0l12.6,7.3c0.2,0.1,0.3,0.2,0.4,0.4C29.3,20,29.1,20.5,28.6,20.8L28.6,20.8z M28.6,20.8"/>
</svg>
