<?xml version="1.0" encoding="utf-8"?>
<!-- Generator: Adobe Illustrator 19.0.0, SVG Export Plug-In . SVG Version: 6.00 Build 0)  -->
<svg version="1.1" id="图层_1" xmlns="http://www.w3.org/2000/svg" xmlns:xlink="http://www.w3.org/1999/xlink" x="0px" y="0px"
	 viewBox="0 0 56.4 47.1" style="enable-background:new 0 0 56.4 47.1;" xml:space="preserve">
<style type="text/css">
	.st0{fill-rule:evenodd;clip-rule:evenodd;fill:#B5B5B6;}
</style>
<g id="XMLID_1441_">
	<path id="XMLID_1442_" class="st0" d="M38.4,14.4h2C38.6,6.2,29.9,0,20,0C9,0,0,7.6,0,17.2C0,22.8,3.1,27.4,7.9,31l-2,6.2l7.1-3.7
		c2.5,0.6,4.5,1.1,7.1,1.1h2c-0.3-1.4-0.6-2.8-0.6-4.2C21.2,21.7,28.8,14.4,38.4,14.4L38.4,14.4z M27.4,8.5c1.7,0,3.1,1.4,3.1,3.1
		c0,1.7-1.4,3.1-3.1,3.1c-1.7,0-3.1-1.4-3.1-3.1C24.3,9.9,25.7,8.5,27.4,8.5L27.4,8.5z M13.3,15c-1.7,0-3.1-1.4-3.1-3.1
		c0-1.7,1.4-3.1,3.1-3.1c1.7,0,3.1,1.4,3.1,3.1C16.4,13.5,15,15,13.3,15L13.3,15z M56.4,30.5c0-8.2-7.9-14.7-16.9-14.7
		c-9.6,0-16.9,6.8-16.9,14.7c0,8.2,7.6,14.7,16.9,14.7c2,0,3.9-0.6,5.9-1.1l5.4,3.1L49.4,42C53.3,39.2,56.4,35,56.4,30.5L56.4,30.5z
		 M34.1,28.2c-1.1,0-2.3-1.1-2.3-2.3c0-1.1,0.8-2.3,2.3-2.3c1.1,0,2.3,1.1,2.3,2.3C36.4,27.1,35.3,28.2,34.1,28.2L34.1,28.2z
		 M45.1,28.2c-1.1,0-2.3-1.1-2.3-2.3c0-1.1,1.1-2.3,2.3-2.3c1.1,0,2.3,1.1,2.3,2.3C47.4,27.1,46.5,28.2,45.1,28.2L45.1,28.2z"/>
</g>
</svg>
