<?xml version="1.0" encoding="utf-8"?>
<!-- Generator: Adobe Illustrator 19.0.0, SVG Export Plug-In . SVG Version: 6.00 Build 0)  -->
<svg version="1.1" id="图层_1" xmlns="http://www.w3.org/2000/svg" xmlns:xlink="http://www.w3.org/1999/xlink" x="0px" y="0px"
	 viewBox="0 0 100 100" style="enable-background:new 0 0 100 100;" xml:space="preserve">
<style type="text/css">
	.st0{fill:#FAFAFA;}
</style>
<g>
	<g>
		<g>
			<path class="st0" d="M50.9,32.5c-10.2,0-18.5,8.3-18.5,18.5c0,10.2,8.3,18.5,18.5,18.5c10.2,0,18.5-8.3,18.5-18.5
				C69.4,40.7,61.1,32.5,50.9,32.5L50.9,32.5z M50.9,64.6c-7.5,0-13.6-6.1-13.6-13.6s6.1-13.6,13.6-13.6c7.5,0,13.6,6.1,13.6,13.6
				c0,3.6-1.4,7.1-4,9.6C58,63.1,54.6,64.6,50.9,64.6L50.9,64.6z M35.8,66.1c0.5,0.5,0.7,1.1,0.7,1.7s-0.3,1.3-0.7,1.7L32.4,73
				c-1,1-2.5,1-3.4,0c-1-1-1-2.5,0-3.4l3.4-3.4c0.5-0.5,1.1-0.7,1.7-0.7C34.7,65.4,35.4,65.6,35.8,66.1L35.8,66.1z M66.1,35.8
				c-0.5-0.5-0.7-1.1-0.7-1.7c0-0.6,0.3-1.3,0.7-1.7l3.4-3.4c1-1,2.5-1,3.4,0c1,1,1,2.5,0,3.4l-3.4,3.4c-0.5,0.5-1.1,0.7-1.7,0.7
				C67.1,36.5,66.5,36.3,66.1,35.8L66.1,35.8z M27.1,53.4h-4.9c-1.3,0-2.4-1.1-2.4-2.4c0-1.3,1.1-2.4,2.4-2.4h4.9
				c1.3,0,2.4,1.1,2.4,2.4C29.6,52.3,28.5,53.4,27.1,53.4L27.1,53.4z M82.1,50.9c0,1.3-1.1,2.4-2.4,2.4h-4.9c-1.3,0-2.4-1.1-2.4-2.4
				c0-1.3,1.1-2.4,2.4-2.4h4.9C81,48.5,82.1,49.6,82.1,50.9L82.1,50.9z M28.9,32.4c-1-1-1-2.5,0-3.4c1-1,2.5-1,3.4,0l3.4,3.4
				c1,1,1,2.5,0,3.4c-1,1-2.5,1-3.4,0L28.9,32.4z M72.9,69.5c1,1,1,2.5,0,3.4c-1,1-2.5,1-3.4,0l-3.4-3.4c-1-1-1-2.5,0-3.4
				c1-1,2.5-1,3.4,0L72.9,69.5z M48.5,27.1v-4.9c0-1.3,1.1-2.4,2.4-2.4c1.3,0,2.4,1.1,2.4,2.4v4.9c0,1.3-1.1,2.4-2.4,2.4
				C49.6,29.6,48.5,28.5,48.5,27.1L48.5,27.1z M53.4,74.8v4.9c0,1.3-1.1,2.4-2.4,2.4c-1.3,0-2.4-1.1-2.4-2.4v-4.9
				c0-1.3,1.1-2.4,2.4-2.4C52.3,72.3,53.4,73.4,53.4,74.8L53.4,74.8z M53.4,74.8"/>
		</g>
	</g>
</g>
<g>
	<g>
		<path class="st0" d="M50,100C22.4,100,0,77.6,0,50S22.4,0,50,0s50,22.4,50,50S77.6,100,50,100z M50,1.9C23.5,1.9,1.9,23.5,1.9,50
			S23.5,98.1,50,98.1S98.1,76.5,98.1,50S76.5,1.9,50,1.9z"/>
	</g>
</g>
</svg>
