<?xml version="1.0" encoding="utf-8"?>
<!-- Generator: Adobe Illustrator 19.0.0, SVG Export Plug-In . SVG Version: 6.00 Build 0)  -->
<svg version="1.1" id="图层_1" xmlns="http://www.w3.org/2000/svg" xmlns:xlink="http://www.w3.org/1999/xlink" x="0px" y="0px"
	 viewBox="0 0 100 100" style="enable-background:new 0 0 100 100;" xml:space="preserve">
<style type="text/css">
	.st0{fill:#FAFAFA;}
</style>
<g>
	<g>
		<path class="st0" d="M50,100C22.4,100,0,77.6,0,50S22.4,0,50,0s50,22.4,50,50S77.6,100,50,100z M50,1.9C23.5,1.9,1.9,23.5,1.9,50
			S23.5,98.1,50,98.1S98.1,76.5,98.1,50S76.5,1.9,50,1.9z"/>
	</g>
</g>
<g>
	<path class="st0" d="M56.4,33.1h8.2c2.2,0,4.1,0.3,5.4,0.5c1.6,0.5,3,1.4,4.1,2.4c3.3,3,4.9,7.6,4.9,13.9c0,1.9-0.3,3.8-0.5,5.4
		c-0.3,1.6-0.8,3.3-1.6,4.6c-0.5,1.4-1.6,2.4-2.7,3.5c-0.8,0.8-1.6,1.4-2.7,1.9c-1.1,0.5-2.2,0.8-3.3,1.1c-1.1,0.3-2.4,0.3-3.8,0.3
		h-8.2c-1.1,0-1.9-0.3-2.4-0.5c-0.5-0.3-1.1-0.8-1.1-1.6c-0.3-0.8-0.3-1.6-0.3-2.7V37.2c0-1.4,0.3-2.4,0.8-3.3
		C53.7,33.1,55,33.1,56.4,33.1L56.4,33.1z M58.8,38.6v22.8h7.1c0.5,0,1.1-0.3,1.9-0.5c0.5-0.3,1.1-0.5,1.6-1.1
		c2.2-1.9,3.3-5.2,3.3-10.1c0-3.3-0.5-5.7-1.4-7.6c-0.8-1.9-2.2-2.7-3.5-3.3c-1.4-0.5-3-0.8-4.9-0.8h-4.1V38.6z M27.6,37.2v9.2h14.1
		v-9.2c0-1.4,0.3-2.4,0.8-3c0.8-0.8,1.6-1.1,2.7-1.1c1.1,0,1.9,0.3,2.4,1.1c0.5,0.5,0.8,1.6,0.8,3v25.6c0,1.4-0.3,2.4-0.8,3
		c-0.5,0.5-1.4,1.1-2.4,1.1c-1.1,0-1.9-0.3-2.4-1.1c-0.5-0.5-0.8-1.6-0.8-3V51.9H27.6v10.9c0,1.4-0.3,2.4-0.8,3
		c-0.5,0.5-1.4,1.1-2.4,1.1c-1.1,0-1.9-0.3-2.4-1.1c-0.5-0.5-0.8-1.6-0.8-3V37.2c0-1.4,0.3-2.4,0.8-3c0.5-0.8,1.4-1.1,2.4-1.1
		c1.1,0,1.9,0.3,2.4,1.1C27.3,34.8,27.6,35.9,27.6,37.2L27.6,37.2z M27.6,37.2"/>
</g>
</svg>
