<?xml version="1.0" encoding="utf-8"?>
<!-- Generator: Adobe Illustrator 19.0.0, SVG Export Plug-In . SVG Version: 6.00 Build 0)  -->
<svg version="1.1" id="图层_1" xmlns="http://www.w3.org/2000/svg" xmlns:xlink="http://www.w3.org/1999/xlink" x="0px" y="0px"
	 viewBox="0 0 100 100" style="enable-background:new 0 0 100 100;" xml:space="preserve">
<style type="text/css">
	.st0{fill:#FAFAFA;}
</style>
<g>
	<g>
		<path class="st0" d="M50,100C22.4,100,0,77.6,0,50S22.4,0,50,0s50,22.4,50,50S77.6,100,50,100z M50,1.9C23.5,1.9,1.9,23.5,1.9,50
			S23.5,98.1,50,98.1S98.1,76.5,98.1,50S76.5,1.9,50,1.9z"/>
	</g>
</g>
<g id="Rainbow">
	<g>
		<path class="st0" d="M50,29.8c-16.2,0-29.4,13.8-29.4,30.7c0,0.7,0.6,1.3,1.3,1.3h24c0.7,0,1.3-0.6,1.3-1.3c0-2.2,1.2-4,2.7-4
			s2.7,1.8,2.7,4c0,0.7,0.6,1.3,1.3,1.3h24c0.7,0,1.3-0.6,1.3-1.3C79.4,43.6,66.2,29.8,50,29.8z M55.2,59.2c-0.5-3-2.7-5.3-5.2-5.3
			c-2.6,0-4.7,2.3-5.2,5.3h-5.4c0.6-6,5.1-10.7,10.6-10.7s10,4.7,10.6,10.7H55.2z M63.3,59.2C62.7,51.7,57,45.8,50,45.8
			c-7,0-12.7,5.9-13.3,13.4h-5.3C32,48.8,40.1,40.5,50,40.5s18,8.3,18.6,18.7H63.3z M71.3,59.2C70.7,47.3,61.4,37.8,50,37.8
			s-20.7,9.5-21.3,21.4h-5.3C24,44.3,35.7,32.5,50,32.5c14.3,0,26,11.8,26.7,26.7H71.3z"/>
	</g>
</g>
</svg>
