<?xml version="1.0" encoding="utf-8"?>
<!-- Generator: Adobe Illustrator 19.0.0, SVG Export Plug-In . SVG Version: 6.00 Build 0)  -->
<svg version="1.1" id="图层_1" xmlns="http://www.w3.org/2000/svg" xmlns:xlink="http://www.w3.org/1999/xlink" x="0px" y="0px"
	 viewBox="0 0 100 100" style="enable-background:new 0 0 100 100;" xml:space="preserve">
<style type="text/css">
	.st0{fill:#FAFAFA;}
</style>
<g>
	<g>
		<path class="st0" d="M50,100C22.4,100,0,77.6,0,50S22.4,0,50,0s50,22.4,50,50S77.6,100,50,100z M50,1.9C23.5,1.9,1.9,23.5,1.9,50
			S23.5,98.1,50,98.1S98.1,76.5,98.1,50S76.5,1.9,50,1.9z"/>
	</g>
</g>
<g>
	<path class="st0" d="M75.8,34.7c0-0.2,0-0.4,0-0.6v-0.2c-0.1-0.2-0.3-0.4-0.5-0.5L50.9,20l-0.7-0.2h-0.9L25.1,33.1
		c-0.2,0.1-0.4,0.3-0.5,0.5v0.2c-0.2,0.2-0.4,0.5-0.5,0.9v30.5c0,0.7,0.4,1.3,1,1.6l23.9,13.1c0.6,0.3,1.2,0.3,1.8,0l23.9-13
		c0.6-0.3,1-1,1-1.6L75.8,34.7L75.8,34.7z M50.2,45.8L29.9,34.7l20.3-10.9l20.1,11.1L50.2,45.8z M27.9,37.9L48.2,49v26.3L27.9,64.2
		V37.9z M72.1,64.2L51.8,75.3V48.9l20.3-11.1V64.2z M72.1,64.2"/>
</g>
</svg>
