<?xml version="1.0" encoding="utf-8"?>
<!-- Generator: Adobe Illustrator 19.0.0, SVG Export Plug-In . SVG Version: 6.00 Build 0)  -->
<svg version="1.1" id="图层_1" xmlns="http://www.w3.org/2000/svg" xmlns:xlink="http://www.w3.org/1999/xlink" x="0px" y="0px"
	 viewBox="0 0 100 100" style="enable-background:new 0 0 100 100;" xml:space="preserve">
<style type="text/css">
	.st0{fill:#FAFAFA;}
</style>
<g>
	<g>
		<path class="st0" d="M50,100C22.4,100,0,77.6,0,50S22.4,0,50,0s50,22.4,50,50S77.6,100,50,100z M50,1.9C23.5,1.9,1.9,23.5,1.9,50
			S23.5,98.1,50,98.1S98.1,76.5,98.1,50S76.5,1.9,50,1.9z"/>
	</g>
</g>
<g>
	<g>
		<path class="st0" d="M70.7,60.3h-35l8.5,8.9c1,1,0.8,2.6-0.3,3.5c-1.2,0.9-2.9,0.7-3.9-0.3L28.2,60.1c-0.8-0.4-1.4-1.3-1.4-2.3
			c0-0.1,0-0.1,0-0.2c0-0.2,0.1-0.4,0.1-0.6c0-0.1,0.1-0.2,0.1-0.3c0.1-0.1,0.2-0.2,0.2-0.4c0.1-0.2,0.3-0.4,0.5-0.5c0,0,0,0,0,0
			c0,0,0,0,0,0c0.3-0.2,0.6-0.4,0.9-0.4c0,0,0,0,0,0c0.2,0,0.4-0.1,0.6-0.1h41.4c1.4,0,2.6,1.2,2.6,2.6
			C73.3,59.2,72.1,60.3,70.7,60.3L70.7,60.3z"/>
	</g>
	<g>
		<path class="st0" d="M73.1,43c0,0.1-0.1,0.2-0.1,0.3c-0.1,0.1-0.2,0.2-0.2,0.4c-0.1,0.2-0.3,0.4-0.5,0.5c0,0,0,0,0,0c0,0,0,0,0,0
			c-0.3,0.2-0.6,0.4-0.9,0.4l0,0c-0.2,0-0.4,0.1-0.6,0.1H29.3c-1.4,0-2.6-1.2-2.6-2.6c0-1.4,1.2-2.6,2.6-2.6h35l-8.5-8.9
			c-1-1-0.8-2.6,0.3-3.5c1.2-0.9,2.9-0.7,3.9,0.3l11.8,12.3c0.8,0.4,1.4,1.3,1.4,2.3c0,0.1,0,0.1,0,0.2C73.3,42.6,73.2,42.8,73.1,43
			L73.1,43z"/>
	</g>
</g>
</svg>
