<?xml version="1.0" encoding="utf-8"?>
<!-- Generator: Adobe Illustrator 19.0.0, SVG Export Plug-In . SVG Version: 6.00 Build 0)  -->
<svg version="1.1" id="图层_1" xmlns="http://www.w3.org/2000/svg" xmlns:xlink="http://www.w3.org/1999/xlink" x="0px" y="0px"
	 viewBox="0 0 100 100" style="enable-background:new 0 0 100 100;" xml:space="preserve">
<style type="text/css">
	.st0{fill:#FAFAFA;}
</style>
<g>
	<g>
		<path class="st0" d="M50,100C22.4,100,0,77.6,0,50S22.4,0,50,0s50,22.4,50,50S77.6,100,50,100z M50,1.9C23.5,1.9,1.9,23.5,1.9,50
			S23.5,98.1,50,98.1S98.1,76.5,98.1,50S76.5,1.9,50,1.9z"/>
	</g>
</g>
<g>
	<g>
		<path class="st0" d="M32.4,69.8h-10V30.2h10c9.1,0,16.7,9,16.7,19.8C49.2,60.9,41.7,69.8,32.4,69.8z M27.5,64.8h5
			c6.4,0,11.7-6.8,11.7-14.9c0-8-5.4-14.8-11.7-14.8h-5V64.8z"/>
	</g>
	<g>
		<path class="st0" d="M77.5,69.8h-10c-9.2,0-16.7-8.9-16.7-19.9c0-10.7,7.7-19.8,16.7-19.8h10V69.8z M67.5,35.2
			c-6.3,0-11.7,6.8-11.7,14.8c0,8.1,5.4,14.9,11.7,14.9h5V35.2H67.5z"/>
	</g>
</g>
<g>
	<path class="st0" d="M76,65.7"/>
</g>
</svg>
