<?xml version="1.0" encoding="utf-8"?>
<!-- Generator: Adobe Illustrator 19.0.0, SVG Export Plug-In . SVG Version: 6.00 Build 0)  -->
<svg version="1.1" id="图层_1" xmlns="http://www.w3.org/2000/svg" xmlns:xlink="http://www.w3.org/1999/xlink" x="0px" y="0px"
	 viewBox="0 0 100 100" style="enable-background:new 0 0 100 100;" xml:space="preserve">
<style type="text/css">
	.st0{fill:#FAFAFA;}
</style>
<g>
	<g>
		<path class="st0" d="M50,100C22.4,100,0,77.6,0,50S22.4,0,50,0s50,22.4,50,50S77.6,100,50,100z M50,1.9C23.5,1.9,1.9,23.5,1.9,50
			S23.5,98.1,50,98.1S98.1,76.5,98.1,50S76.5,1.9,50,1.9z"/>
	</g>
</g>
<g>
	<path class="st0" d="M50,53.1L38.5,41.6l-2.7,2.7L50,58.5l14.2-14.2l-2.7-2.7L50,53.1z M65.2,25.3H34.8L21.5,39.2v6.2L50,74.7
		l28.5-29.3v-6.2L65.2,25.3z M74.7,44.3L50,69L25.3,44.3v-3.8l11.4-11.4h26.6l11.4,11.4L74.7,44.3L74.7,44.3z M74.7,44.3"/>
</g>
</svg>
