<?xml version="1.0" encoding="utf-8"?>
<!-- Generator: Adobe Illustrator 19.0.0, SVG Export Plug-In . SVG Version: 6.00 Build 0)  -->
<svg version="1.1" id="图层_1" xmlns="http://www.w3.org/2000/svg" xmlns:xlink="http://www.w3.org/1999/xlink" x="0px" y="0px"
	 viewBox="0 0 100 100" style="enable-background:new 0 0 100 100;" xml:space="preserve">
<style type="text/css">
	.st0{fill:#FAFAFA;}
</style>
<g>
	<g>
		<path class="st0" d="M50,100C22.4,100,0,77.6,0,50S22.4,0,50,0s50,22.4,50,50S77.6,100,50,100z M50,1.9C23.5,1.9,1.9,23.5,1.9,50
			S23.5,98.1,50,98.1S98.1,76.5,98.1,50S76.5,1.9,50,1.9z"/>
	</g>
</g>
<g>
	<path class="st0" d="M61.4,69.2c-0.7,0-1.3-0.1-1.7-0.3c-1.6-0.9-2.8-2-3.9-5.4c-1.2-3.6-3.4-5.2-5.5-6.9c-1.8-1.4-3.7-2.8-5.3-5.8
		c-1.2-2.2-1.9-4.6-1.9-6.7c0-6.4,5-11.4,11.4-11.4C61,32.6,66,37.6,66,44h4.6c0-9-7-16-16-16c-9,0-16,7-16,16
		c0,2.9,0.9,6.1,2.4,8.9c2.1,3.8,4.5,5.7,6.5,7.2c1.9,1.4,3.2,2.5,3.9,4.7c1.4,4.1,3.1,6.5,6.2,8.1c1.2,0.5,2.4,0.8,3.8,0.8
		c5,0,9.1-4.1,9.1-9.1H66C66,67.1,63.9,69.2,61.4,69.2L61.4,69.2z M40,29.5l-3.2-3.2c-4.5,4.5-7.4,10.8-7.4,17.8s2.8,13.2,7.4,17.8
		l3.2-3.2c-3.7-3.7-6-8.9-6-14.5C34,38.4,36.3,33.2,40,29.5L40,29.5z M48.9,44c0,3.2,2.6,5.7,5.7,5.7c3.2,0,5.7-2.6,5.7-5.7
		c0-3.2-2.6-5.7-5.7-5.7C51.4,38.3,48.9,40.9,48.9,44L48.9,44z M48.9,44"/>
</g>
</svg>
