<?xml version="1.0" encoding="utf-8"?>
<!-- Generator: Adobe Illustrator 19.0.0, SVG Export Plug-In . SVG Version: 6.00 Build 0)  -->
<svg version="1.1" id="图层_1" xmlns="http://www.w3.org/2000/svg" xmlns:xlink="http://www.w3.org/1999/xlink" x="0px" y="0px"
	 viewBox="0 0 100 100" style="enable-background:new 0 0 100 100;" xml:space="preserve">
<style type="text/css">
	.st0{fill:#FAFAFA;}
</style>
<g>
	<g>
		<path class="st0" d="M50,100C22.4,100,0,77.6,0,50S22.4,0,50,0s50,22.4,50,50S77.6,100,50,100z M50,1.9C23.5,1.9,1.9,23.5,1.9,50
			S23.5,98.1,50,98.1S98.1,76.5,98.1,50S76.5,1.9,50,1.9z"/>
	</g>
</g>
<g>
	<path class="st0" d="M48,74.8V54.3l-10.2,9.7c-0.4,0.4-1,0.6-1.5,0.5c-0.6-0.1-1.1-0.3-1.4-0.8c-0.6-0.8-0.4-1.9,0.4-2.5l11.9-11.3
		L35.3,38.6c-0.7-0.7-0.8-1.7-0.4-2.5c0.3-0.5,0.8-0.8,1.4-0.9c0.6-0.1,1.1,0.1,1.5,0.5l10.2,9.6V25.1c0-0.8,0.4-1.4,1.1-1.8
		c0.7-0.3,1.5-0.2,2.1,0.3l13.4,12c0.4,0.3,0.7,0.9,0.7,1.4c0,0.5-0.2,1.1-0.7,1.4L52.9,49.8l12,11.2c0.8,0.8,0.8,2,0,2.8L51.3,76.3
		c-0.6,0.5-1.4,0.7-2.1,0.4C48.5,76.3,48,75.6,48,74.8L48,74.8z M51.9,54.3v16.1l8.7-8L51.9,54.3L51.9,54.3z M51.9,29.5v15.8
		l8.7-8.1L51.9,29.5L51.9,29.5z M51.9,29.5"/>
</g>
</svg>
