<?xml version="1.0" encoding="utf-8"?>
<!-- Generator: Adobe Illustrator 19.0.0, SVG Export Plug-In . SVG Version: 6.00 Build 0)  -->
<svg version="1.1" id="图层_1" xmlns="http://www.w3.org/2000/svg" xmlns:xlink="http://www.w3.org/1999/xlink" x="0px" y="0px"
	 viewBox="0 0 100 100" style="enable-background:new 0 0 100 100;" xml:space="preserve">
<style type="text/css">
	.st0{fill:#FAFAFA;}
</style>
<g>
	<g>
		<path class="st0" d="M50,100C22.4,100,0,77.6,0,50S22.4,0,50,0s50,22.4,50,50S77.6,100,50,100z M50,1.9C23.5,1.9,1.9,23.5,1.9,50
			S23.5,98.1,50,98.1S98.1,76.5,98.1,50S76.5,1.9,50,1.9z"/>
	</g>
</g>
<g>
	<path class="st0" d="M72.9,61.4c-0.9,0-1.6-0.7-1.6-1.6V40.3c0-0.9,0.7-1.6,1.6-1.6c0.9,0,1.6,0.7,1.6,1.6v19.4
		C74.5,60.6,73.8,61.4,72.9,61.4L72.9,61.4z M61.5,67.9c-0.9,0-1.6-0.7-1.6-1.6V33.7c0-0.9,0.7-1.6,1.6-1.6s1.6,0.7,1.6,1.6v32.6
		C63.1,67.2,62.4,67.9,61.5,67.9L61.5,67.9z M50,74.5c-0.9,0-1.6-0.7-1.6-1.6V27.1c0-0.9,0.7-1.6,1.6-1.6c0.9,0,1.6,0.7,1.6,1.6
		v45.7C51.6,73.8,50.9,74.5,50,74.5L50,74.5z M38.6,67.9c-0.9,0-1.6-0.7-1.6-1.6V33.7c0-0.9,0.7-1.6,1.6-1.6s1.6,0.7,1.6,1.6v32.6
		C40.2,67.2,39.5,67.9,38.6,67.9L38.6,67.9z M27.1,61.4c-0.9,0-1.6-0.7-1.6-1.6V40.3c0-0.9,0.7-1.6,1.6-1.6s1.6,0.7,1.6,1.6v19.4
		C28.8,60.6,28,61.4,27.1,61.4L27.1,61.4z M27.1,61.4"/>
</g>
</svg>
