<?xml version="1.0" encoding="utf-8"?>
<!-- Generator: Adobe Illustrator 19.0.0, SVG Export Plug-In . SVG Version: 6.00 Build 0)  -->
<svg version="1.1" id="图层_1" xmlns="http://www.w3.org/2000/svg" xmlns:xlink="http://www.w3.org/1999/xlink" x="0px" y="0px"
	 viewBox="0 0 100 100" style="enable-background:new 0 0 100 100;" xml:space="preserve">
<style type="text/css">
	.st0{fill:#FAFAFA;}
</style>
<g>
	<g>
		<path class="st0" d="M50,100C22.4,100,0,77.6,0,50S22.4,0,50,0s50,22.4,50,50S77.6,100,50,100z M50,1.9C23.5,1.9,1.9,23.5,1.9,50
			S23.5,98.1,50,98.1S98.1,76.5,98.1,50S76.5,1.9,50,1.9z"/>
	</g>
</g>
<g>
	<path class="st0" d="M29,58.7h-5V40c-1.8,1.7-4,3-6.4,3.8v-4.5c1.3-0.4,2.7-1.2,4.2-2.4s2.6-2.6,3.1-4.2h4V58.7z"/>
	<path class="st0" d="M37.5,58.7v-5h5v5H37.5z"/>
	<path class="st0" d="M46.6,52.1l5-0.5c0.1,1.1,0.6,2,1.3,2.7c0.7,0.7,1.5,1,2.4,1c1,0,1.9-0.4,2.6-1.3c0.7-0.8,1.1-2.1,1.1-3.8
		c0-1.6-0.4-2.8-1.1-3.6c-0.7-0.8-1.6-1.2-2.8-1.2c-1.4,0-2.7,0.6-3.8,1.9l-4-0.6l2.5-13.5h13.2v4.7h-9.4l-0.8,4.4
		c1.1-0.6,2.2-0.8,3.4-0.8c2.2,0,4.1,0.8,5.6,2.4c1.5,1.6,2.3,3.7,2.3,6.2c0,2.1-0.6,4-1.9,5.7c-1.7,2.3-4,3.4-7,3.4
		c-2.4,0-4.3-0.6-5.9-1.9C47.8,56,46.9,54.2,46.6,52.1z"/>
	<path class="st0" d="M76.4,58.7v-5.2H65.8v-4.4L77,32.7h4.2v16.5h3.2v4.4h-3.2v5.2H76.4z M76.4,49.1v-8.9l-6,8.9H76.4z"/>
</g>
</svg>
