<?xml version="1.0" encoding="utf-8"?>
<!-- Generator: Adobe Illustrator 19.0.0, SVG Export Plug-In . SVG Version: 6.00 Build 0)  -->
<svg version="1.1" id="图层_1" xmlns="http://www.w3.org/2000/svg" xmlns:xlink="http://www.w3.org/1999/xlink" x="0px" y="0px"
	 viewBox="0 0 100 100" style="enable-background:new 0 0 100 100;" xml:space="preserve">
<style type="text/css">
	.st0{fill:#FAFAFA;}
</style>
<g>
	<g>
		<path class="st0" d="M50,100C22.4,100,0,77.6,0,50S22.4,0,50,0s50,22.4,50,50S77.6,100,50,100z M50,1.9C23.5,1.9,1.9,23.5,1.9,50
			S23.5,98.1,50,98.1S98.1,76.5,98.1,50S76.5,1.9,50,1.9z"/>
	</g>
</g>
<g>
	<path class="st0" d="M42.5,54.5v5h-19c0.2-1.9,0.8-3.7,1.8-5.4c1-1.7,3.1-4,6.1-6.8c2.4-2.3,3.9-3.8,4.5-4.6
		c0.7-1.1,1.1-2.2,1.1-3.3c0-1.2-0.3-2.1-1-2.8c-0.6-0.6-1.5-1-2.7-1c-1.1,0-2,0.3-2.7,1c-0.7,0.7-1.1,1.8-1.2,3.4l-5.4-0.5
		c0.3-3,1.3-5.1,3-6.4c1.7-1.3,3.8-1.9,6.4-1.9c2.8,0,5,0.8,6.6,2.3c1.6,1.5,2.4,3.4,2.4,5.6c0,1.3-0.2,2.5-0.7,3.6
		c-0.5,1.1-1.2,2.4-2.2,3.6c-0.7,0.8-1.8,2-3.5,3.6c-1.7,1.6-2.8,2.6-3.2,3.1c-0.5,0.5-0.8,1-1.1,1.5H42.5z"/>
	<path class="st0" d="M47.4,59.5v-5.4h5.4v5.4H47.4z"/>
	<path class="st0" d="M61.8,44.3c-1.4-0.6-2.4-1.4-3.1-2.4s-1-2.2-1-3.4c0-2.1,0.7-3.8,2.2-5.2c1.5-1.4,3.6-2.1,6.3-2.1
		c2.7,0,4.8,0.7,6.2,2.1c1.5,1.4,2.2,3.1,2.2,5.2c0,1.3-0.3,2.5-1,3.5s-1.6,1.8-2.9,2.3c1.6,0.6,2.8,1.5,3.6,2.8
		c0.8,1.2,1.2,2.6,1.2,4.2c0,2.6-0.8,4.7-2.5,6.4S69.3,60,66.5,60c-2.6,0-4.7-0.7-6.4-2c-2-1.6-3-3.8-3-6.5c0-1.5,0.4-2.9,1.1-4.2
		C59,45.9,60.2,45,61.8,44.3z M62.4,50.9c0,1.5,0.4,2.6,1.1,3.5c0.8,0.8,1.7,1.3,2.9,1.3c1.1,0,2-0.4,2.8-1.2c0.7-0.8,1.1-2,1.1-3.5
		c0-1.3-0.4-2.4-1.1-3.2c-0.7-0.8-1.7-1.2-2.8-1.2c-1.3,0-2.3,0.5-3,1.4C62.7,48.9,62.4,49.8,62.4,50.9z M62.9,38.8
		c0,1.1,0.3,1.9,0.9,2.5c0.6,0.6,1.4,0.9,2.4,0.9c1,0,1.8-0.3,2.5-0.9s0.9-1.5,0.9-2.5c0-1-0.3-1.8-0.9-2.4
		c-0.6-0.6-1.4-0.9-2.4-0.9c-1,0-1.9,0.3-2.5,0.9C63.2,37,62.9,37.8,62.9,38.8z"/>
</g>
</svg>
