<?xml version="1.0" encoding="utf-8"?>
<!-- Generator: Adobe Illustrator 19.0.0, SVG Export Plug-In . SVG Version: 6.00 Build 0)  -->
<svg version="1.1" id="图层_1" xmlns="http://www.w3.org/2000/svg" xmlns:xlink="http://www.w3.org/1999/xlink" x="0px" y="0px"
	 viewBox="0 0 100 100" style="enable-background:new 0 0 100 100;" xml:space="preserve">
<style type="text/css">
	.st0{fill:#FAFAFA;}
</style>
<g>
	<g>
		<path class="st0" d="M50,100C22.4,100,0,77.6,0,50S22.4,0,50,0s50,22.4,50,50S77.6,100,50,100z M50,1.9C23.5,1.9,1.9,23.5,1.9,50
			S23.5,98.1,50,98.1S98.1,76.5,98.1,50S76.5,1.9,50,1.9z"/>
	</g>
</g>
<g>
	<path class="st0" d="M43.1,54.1v4.6H25.7c0.2-1.7,0.8-3.4,1.7-5c0.9-1.6,2.8-3.6,5.6-6.2c2.2-2.1,3.6-3.5,4.1-4.2c0.7-1,1-2,1-3
		c0-1.1-0.3-2-0.9-2.6c-0.6-0.6-1.4-0.9-2.5-0.9c-1,0-1.9,0.3-2.5,0.9c-0.6,0.6-1,1.7-1.1,3.1l-5-0.5c0.3-2.7,1.2-4.7,2.8-5.9
		c1.6-1.2,3.5-1.8,5.8-1.8c2.6,0,4.6,0.7,6,2.1c1.5,1.4,2.2,3.1,2.2,5.2c0,1.2-0.2,2.3-0.6,3.3s-1.1,2.2-2,3.3
		c-0.6,0.8-1.7,1.9-3.3,3.3c-1.6,1.4-2.6,2.4-3,2.9c-0.4,0.5-0.8,0.9-1,1.4H43.1z"/>
	<path class="st0" d="M47.6,58.7v-5h5v5H47.6z"/>
	<path class="st0" d="M56.4,51.8l4.8-0.6c0.2,1.2,0.6,2.2,1.2,2.8c0.7,0.6,1.5,1,2.4,1c1,0,1.9-0.4,2.6-1.2c0.7-0.8,1.1-1.8,1.1-3.2
		c0-1.3-0.3-2.2-1-3c-0.7-0.7-1.5-1.1-2.5-1.1c-0.6,0-1.4,0.1-2.3,0.4l0.5-4.1c1.3,0,2.4-0.3,3.1-0.9c0.7-0.6,1.1-1.4,1.1-2.5
		c0-0.9-0.3-1.6-0.8-2.1c-0.5-0.5-1.2-0.8-2.1-0.8c-0.9,0-1.6,0.3-2.2,0.9c-0.6,0.6-1,1.5-1.1,2.6l-4.6-0.8c0.3-1.6,0.8-2.8,1.4-3.8
		c0.6-0.9,1.5-1.7,2.7-2.2c1.2-0.5,2.4-0.8,3.9-0.8c2.4,0,4.4,0.8,5.9,2.3c1.2,1.3,1.8,2.7,1.8,4.3c0,2.3-1.2,4.1-3.7,5.5
		c1.5,0.3,2.7,1,3.6,2.1c0.9,1.1,1.3,2.4,1.3,4c0,2.3-0.8,4.2-2.5,5.8s-3.7,2.4-6.2,2.4c-2.3,0-4.3-0.7-5.8-2
		C57.5,55.8,56.6,54,56.4,51.8z"/>
</g>
</svg>
