<?xml version="1.0" encoding="utf-8"?>
<!-- Generator: Adobe Illustrator 19.0.0, SVG Export Plug-In . SVG Version: 6.00 Build 0)  -->
<svg version="1.1" id="图层_1" xmlns="http://www.w3.org/2000/svg" xmlns:xlink="http://www.w3.org/1999/xlink" x="0px" y="0px"
	 viewBox="0 0 100 100" style="enable-background:new 0 0 100 100;" xml:space="preserve">
<style type="text/css">
	.st0{fill:#FAFAFA;}
</style>
<g>
	<g>
		<path class="st0" d="M50,100C22.4,100,0,77.6,0,50S22.4,0,50,0s50,22.4,50,50S77.6,100,50,100z M50,1.9C23.5,1.9,1.9,23.5,1.9,50
			S23.5,98.1,50,98.1S98.1,76.5,98.1,50S76.5,1.9,50,1.9z"/>
	</g>
</g>
<g>
	<path class="st0" d="M72.3,47.8c-1.8-4.3-2.7-6.3-4.4-9.8c-1.2-2.4-2.5-3.7-4.1-4.2c-1.4-0.4-3-0.1-4.8,1c-1.3-2-2.8-3.3-5.6-2.5
		c-1.4,0.4-2.2,1.1-2.8,1.6c-1.2-1.3-2.9-2.2-5.4-1.2c-1.2,0.5-2.4,1.2-3.4,2.2c-2.5-4.6-4.4-7.8-4.4-7.9c-1.8-3.3-3.3-3.9-6.7-2.5
		c-1.6,0.7-2.6,1.7-2.9,3.1c-0.2,1,0,2.2,0.6,3.8c0.1,0.1,5.2,10.2,9.1,18.1c1.5,3.1,2.9,6.3,3.7,8.4c-0.9-0.7-2-1.7-3-2.5
		c-2.6-2.2-5.3-4.4-6.9-5.4c-0.9-0.5-2-1.2-3.8-0.1c-1.6,1-2.4,2.5-2.3,4.3c0,0.5,0,1.6,1.7,3.1c1.3,1.1,3.4,3.2,5.6,5.4
		c3.7,3.6,7.5,7.4,9.2,8.4c4.4,2.9,11.8,5,12.2,5.1l0.5-1.8c-0.1,0-7.5-2.1-11.7-4.9c-1.5-1-5.5-4.8-8.9-8.2
		c-2.2-2.2-4.3-4.3-5.7-5.4c-1.1-0.9-1.1-1.4-1.1-1.7l0-0.1c0-1.1,0.5-2,1.5-2.6c0.8-0.5,1.1-0.3,1.9,0.1c1.5,0.9,4.3,3.2,6.7,5.3
		c5,4.2,5.6,4.7,6.5,4.1c0.1-0.1,0.6-0.5,0.3-1.3l0,0c0-0.1-2-5.7-4.6-10.9c-3.9-7.9-9.1-18-9.1-18c-0.5-1.1-0.6-2-0.5-2.6
		c0.2-0.7,0.7-1.3,1.8-1.7c2.5-1,3-0.8,4.4,1.7c0.1,0.1,5.6,9.7,10.3,19.3l1.6-0.8c-1.7-3.4-3.5-6.9-5.1-9.9
		c0.6-0.6,1.6-1.5,3.2-2.1c2.1-0.9,3.4,0,5.2,3.7l3.3,6.5l1.6-0.8l-3.3-6.5c-0.3-0.6-0.6-1.3-1.1-2c0.3-0.4,0.9-1,2.2-1.4
		c2-0.6,2.7,0.4,4.5,3.3l3.6,7.1l1.6-0.8l-3.6-7.1l-0.1-0.2l0-0.1c1.3-0.8,2.4-1.1,3.3-0.8c1.1,0.3,2,1.4,2.9,3.2
		c1.7,3.5,2.6,5.4,4.4,9.7c4.2,10.2,1.1,18.6,1.1,18.6l1.7,0.7C73.6,67.4,76.8,58.7,72.3,47.8L72.3,47.8z M42.3,60.2
		C42.3,60.2,42.3,60.2,42.3,60.2l0.9-0.4L42.3,60.2z M42.3,60.2"/>
</g>
</svg>
