<?xml version="1.0" encoding="utf-8"?>
<!-- Generator: Adobe Illustrator 19.0.0, SVG Export Plug-In . SVG Version: 6.00 Build 0)  -->
<svg version="1.1" id="图层_1" xmlns="http://www.w3.org/2000/svg" xmlns:xlink="http://www.w3.org/1999/xlink" x="0px" y="0px"
	 viewBox="0 0 100 100" style="enable-background:new 0 0 100 100;" xml:space="preserve">
<style type="text/css">
	.st0{fill:#FAFAFA;}
</style>
<g>
	<g>
		<path class="st0" d="M50,100C22.4,100,0,77.6,0,50S22.4,0,50,0s50,22.4,50,50S77.6,100,50,100z M50,1.9C23.5,1.9,1.9,23.5,1.9,50
			S23.5,98.1,50,98.1S98.1,76.5,98.1,50S76.5,1.9,50,1.9z"/>
	</g>
</g>
<g>
	<path class="st0" d="M42.7,78.7L28.4,60.9c0,0-0.7-6.7,5.7-3.9c3.7,1.7,5,5.2,5,5.2l0.1-27.2c0,0,3.8-5.7,7.2,0l0.1,17.2
		c0,0,4.1-5.6,9,0.4c0,0,3.7-6.2,8.8,0.3c0,0,3.6-7.1,7.3,0.6v21.6c0,0-0.2,1.7-3.2,3.6H42.7z M42.8,21.3c8,0,14.4,6.5,14.4,14.4
		c0,5.3-2.9,9.9-7.2,12.4v-4.6c2.2-2,3.5-4.8,3.5-7.9c0-5.9-4.8-10.8-10.8-10.8c-5.9,0-10.8,4.8-10.8,10.8c0,3.2,1.4,6.1,3.7,8v4.5
		c-4.3-2.5-7.3-7.1-7.3-12.4C28.4,27.7,34.8,21.3,42.8,21.3L42.8,21.3z M42.8,21.3"/>
</g>
</svg>
