<?xml version="1.0" encoding="utf-8"?>
<!-- Generator: Adobe Illustrator 19.0.0, SVG Export Plug-In . SVG Version: 6.00 Build 0)  -->
<svg version="1.1" id="图层_1" xmlns="http://www.w3.org/2000/svg" xmlns:xlink="http://www.w3.org/1999/xlink" x="0px" y="0px"
	 viewBox="0 0 100 100" style="enable-background:new 0 0 100 100;" xml:space="preserve">
<style type="text/css">
	.st0{fill:#FAFAFA;}
</style>
<g>
	<g>
		<path class="st0" d="M50,100C22.4,100,0,77.6,0,50S22.4,0,50,0s50,22.4,50,50S77.6,100,50,100z M50,1.9C23.5,1.9,1.9,23.5,1.9,50
			S23.5,98.1,50,98.1S98.1,76.5,98.1,50S76.5,1.9,50,1.9z"/>
	</g>
</g>
<g>
	<path class="st0" d="M26.8,49.2v-4.3h11.1v10.2c-1.1,1-2.6,2-4.7,2.8S29.1,59,27,59c-2.7,0-5-0.6-7-1.7c-2-1.1-3.5-2.7-4.5-4.8
		c-1-2.1-1.5-4.4-1.5-6.8c0-2.7,0.6-5,1.7-7.1c1.1-2.1,2.7-3.7,4.9-4.8c1.6-0.8,3.7-1.3,6.1-1.3c3.2,0,5.6,0.7,7.4,2
		c1.8,1.3,2.9,3.2,3.4,5.5l-5.1,1c-0.4-1.3-1-2.2-2-3c-1-0.7-2.2-1.1-3.7-1.1c-2.3,0-4,0.7-5.4,2.1c-1.3,1.4-2,3.5-2,6.4
		c0,3,0.7,5.3,2,6.8c1.3,1.5,3.1,2.3,5.3,2.3c1.1,0,2.2-0.2,3.2-0.6c1.1-0.4,2-0.9,2.8-1.5v-3.2H26.8z"/>
	<path class="st0" d="M42.7,58.6V33h8.3c3.1,0,5.2,0.1,6.1,0.4c1.5,0.4,2.7,1.2,3.7,2.5c1,1.3,1.5,2.9,1.5,5c0,1.6-0.3,2.9-0.9,4
		s-1.3,1.9-2.2,2.5s-1.8,1-2.7,1.2c-1.2,0.2-3,0.4-5.3,0.4h-3.4v9.6H42.7z M47.8,37.4v7.2h2.8c2,0,3.4-0.1,4.1-0.4s1.2-0.7,1.6-1.3
		c0.4-0.6,0.6-1.2,0.6-2c0-0.9-0.3-1.7-0.8-2.3s-1.2-1-2.1-1.1c-0.6-0.1-1.9-0.2-3.7-0.2H47.8z"/>
	<path class="st0" d="M65.2,50.3l5-0.5c0.3,1.7,0.9,2.9,1.8,3.7c0.9,0.8,2.2,1.2,3.7,1.2c1.7,0,2.9-0.4,3.8-1.1
		c0.8-0.7,1.3-1.5,1.3-2.5c0-0.6-0.2-1.1-0.5-1.5c-0.4-0.4-1-0.8-1.9-1.1c-0.6-0.2-2-0.6-4.1-1.1c-2.8-0.7-4.7-1.5-5.8-2.5
		c-1.6-1.4-2.4-3.1-2.4-5.1c0-1.3,0.4-2.5,1.1-3.6c0.7-1.1,1.8-2,3.2-2.6c1.4-0.6,3.1-0.9,5-0.9c3.2,0,5.6,0.7,7.2,2.1
		s2.5,3.3,2.6,5.6L80,40.6c-0.2-1.3-0.7-2.3-1.4-2.8c-0.7-0.6-1.8-0.9-3.3-0.9c-1.5,0-2.7,0.3-3.5,0.9c-0.5,0.4-0.8,0.9-0.8,1.6
		c0,0.6,0.3,1.1,0.8,1.6c0.7,0.5,2.2,1.1,4.7,1.7c2.5,0.6,4.4,1.2,5.6,1.8c1.2,0.6,2.1,1.5,2.8,2.6c0.7,1.1,1,2.5,1,4.1
		c0,1.5-0.4,2.8-1.2,4.1c-0.8,1.3-2,2.2-3.4,2.8c-1.5,0.6-3.3,0.9-5.6,0.9c-3.2,0-5.7-0.7-7.4-2.2C66.5,55.3,65.5,53.1,65.2,50.3z"
		/>
</g>
</svg>
