<?xml version="1.0" encoding="utf-8"?>
<!-- Generator: Adobe Illustrator 19.0.0, SVG Export Plug-In . SVG Version: 6.00 Build 0)  -->
<svg version="1.1" id="图层_1" xmlns="http://www.w3.org/2000/svg" xmlns:xlink="http://www.w3.org/1999/xlink" x="0px" y="0px"
	 viewBox="0 0 100 100" style="enable-background:new 0 0 100 100;" xml:space="preserve">
<style type="text/css">
	.st0{fill:#FAFAFA;}
</style>
<g>
	<g>
		<path class="st0" d="M50,100C22.4,100,0,77.6,0,50S22.4,0,50,0s50,22.4,50,50S77.6,100,50,100z M50,1.9C23.5,1.9,1.9,23.5,1.9,50
			S23.5,98.1,50,98.1S98.1,76.5,98.1,50S76.5,1.9,50,1.9z"/>
	</g>
</g>
<g>
	<g>
		<g>
			<path class="st0" d="M58.3,41.6l-1.9,7.1c2.6,1.4,4.2,2.9,3.9,4.1c-0.5,1.8-5.5,2-11.2,0.5c-5.7-1.6-9.9-4.3-9.4-6.2
				c0.3-1.2,2.7-1.7,5.9-1.5l1.8-7c-11.8-2.2-21.5-0.5-22.9,4.3c-1.6,5.6,8.6,13.3,22.8,17.2c14.1,3.9,26.9,2.6,28.4-3
				C76.9,52.2,69.5,45.8,58.3,41.6z"/>
		</g>
	</g>
</g>
<g>
	<g>
		<path class="st0" d="M43.9,73.4c-0.1,0-0.1,0-0.2,0c-0.4-0.1-0.7-0.6-0.6-1l12.1-45.2c0.1-0.4,0.6-0.7,1-0.6
			c0.4,0.1,0.7,0.6,0.6,1L44.7,72.8C44.6,73.2,44.3,73.4,43.9,73.4z"/>
	</g>
</g>
</svg>
