<?xml version="1.0" encoding="utf-8"?>
<!-- Generator: Adobe Illustrator 19.0.0, SVG Export Plug-In . SVG Version: 6.00 Build 0)  -->
<svg version="1.1" id="图层_1" xmlns="http://www.w3.org/2000/svg" xmlns:xlink="http://www.w3.org/1999/xlink" x="0px" y="0px"
	 viewBox="0 0 42 42" style="enable-background:new 0 0 42 42;" xml:space="preserve">
<style type="text/css">
	.st0{fill:#F2F2F2;}
</style>
<g>
	<path class="st0" d="M37.4,42h-5.6v-1.9h5.6c1.5,0,2.7-1.2,2.7-2.7v-5.6H42v5.6C42,39.9,39.9,42,37.4,42L37.4,42z M37.4,42"/>
	<path class="st0" d="M42,10.2h-1.9V4.6c0-1.5-1.2-2.7-2.7-2.7h-5.6V0h5.6C39.9,0,42,2.1,42,4.6V10.2z M42,10.2"/>
	<path class="st0" d="M1.9,10.2H0V4.6C0,2.1,2.1,0,4.6,0h5.7v1.9H4.6c-1.5,0-2.7,1.2-2.7,2.7L1.9,10.2z M1.9,10.2"/>
	<path class="st0" d="M10.3,42H4.6C2.1,42,0,39.9,0,37.4v-5.6h1.9v5.6c0,1.5,1.2,2.7,2.7,2.7h5.7V42z M10.3,42"/>
	<rect x="2.1" y="20" class="st0" width="37.8" height="1.9"/>
</g>
</svg>
