<?xml version="1.0" encoding="utf-8"?>
<!-- Generator: Adobe Illustrator 19.0.0, SVG Export Plug-In . SVG Version: 6.00 Build 0)  -->
<svg version="1.1" id="图层_1" xmlns="http://www.w3.org/2000/svg" xmlns:xlink="http://www.w3.org/1999/xlink" x="0px" y="0px"
	 viewBox="0 0 41.7 50.9" style="enable-background:new 0 0 41.7 50.9;" xml:space="preserve">
<style type="text/css">
	.st0{fill:#B5B5B6;}
</style>
<g id="XMLID_1440_">
	<path id="XMLID_1455_" class="st0" d="M6.3,1c-1.6,0-3,0.4-4.1,1.1C1.5,2.5,1,2.9,0.6,3.5C0.3,4.1,0,4.8,0,5.6v38.5
		c0,0.8,0.3,1.5,0.6,2C1.2,47,2.1,47.6,3,48c1,0.4,2,0.6,3.2,0.6l29.6,2.3v-5.6l5.9-0.3V0L6.3,1z M28.4,31.3l-8.7,10.2
		c-0.1,0.1-0.3,0.2-0.5,0.2c-0.2,0-0.4-0.1-0.5-0.2l-8.7-10.2c-0.2-0.2-0.2-0.5-0.1-0.7c0.1-0.2,0.3-0.4,0.6-0.4h4.9V17.2
		c0-0.7,0.6-1.3,1.3-1.3h4.9c0.7,0,1.3,0.6,1.3,1.3v13.1h4.9c0.3,0,0.5,0.1,0.6,0.4C28.6,30.9,28.6,31.2,28.4,31.3z M38.5,42
		l-2.7,0.1V9.2L6.3,6.9c-1-0.1-1.9-0.3-2.5-0.6C3.6,6.1,3.4,5.9,3.3,5.8C3.2,5.7,3.2,5.6,3.2,5.6c0-0.1,0-0.1,0.1-0.3
		c0.1-0.2,0.5-0.5,1-0.7c0.5-0.2,1.2-0.4,2-0.4h0l32.2-0.9V42z"/>
</g>
</svg>
