<?xml version="1.0" encoding="utf-8"?>
<!-- Generator: Adobe Illustrator 19.0.0, SVG Export Plug-In . SVG Version: 6.00 Build 0)  -->
<svg version="1.1" id="图层_1" xmlns="http://www.w3.org/2000/svg" xmlns:xlink="http://www.w3.org/1999/xlink" x="0px" y="0px"
	 viewBox="-49 40.7 41.7 60" style="enable-background:new -49 40.7 41.7 60;" xml:space="preserve">
<style type="text/css">
	.st0{fill:#9FA0A0;}
</style>
<g id="XMLID_41_">
	<path id="XMLID_10_" class="st0" d="M-12.3,40.7H-44c-2.8,0-5,2.2-5,5v50c0,2.8,2.2,5,5,5h31.7c2.8,0,5-2.2,5-5v-50
		C-7.3,42.9-9.5,40.7-12.3,40.7L-12.3,40.7z M-44,44h31.7c1,0,1.7,0.7,1.7,1.7v37.5h-35V45.7C-45.7,44.7-45,44-44,44L-44,44z
		 M-12.3,97.4H-44c-1,0-1.7-0.7-1.7-1.7v-9.2h35v9.2C-10.7,96.7-11.3,97.4-12.3,97.4L-12.3,97.4z"/>
	<path id="XMLID_7_" class="st0" d="M-31,91.9c0,1.6,1.3,2.8,2.8,2.8s2.8-1.3,2.8-2.8c0-1-0.5-2-1.4-2.5s-2-0.5-2.8,0
		C-30.5,90-31,90.9-31,91.9L-31,91.9z"/>
</g>
</svg>
