<?xml version="1.0" encoding="utf-8"?>
<!-- Generator: Adobe Illustrator 19.0.0, SVG Export Plug-In . SVG Version: 6.00 Build 0)  -->
<svg version="1.1" id="图层_1" xmlns="http://www.w3.org/2000/svg" xmlns:xlink="http://www.w3.org/1999/xlink" x="0px" y="0px"
	 viewBox="0 0 45.7 49.9" style="enable-background:new 0 0 45.7 49.9;" xml:space="preserve">
<style type="text/css">
	.st0{fill-rule:evenodd;clip-rule:evenodd;fill:#B5B5B6;}
</style>
<g id="XMLID_2_">
	<g id="XMLID_18_">
		<path id="XMLID_3_" class="st0" d="M39.2,0H6.5C2.9,0,0,2.9,0,6.5v36.8c0,3.6,2.9,6.5,6.5,6.5h10.9c-0.2-0.6-0.4-1.3-0.4-2
			c0-1.5,0.6-3,1.7-4.1c1.1-1.1,2.6-1.7,4.1-1.7c1.5,0,3,0.6,4.1,1.7c1.1,1.1,1.7,2.6,1.7,4.1c0,0.7-0.1,1.4-0.4,2h10.9
			c3.6,0,6.5-2.9,6.5-6.5V6.5C45.7,2.9,42.8,0,39.2,0L39.2,0z M42.4,43.3c0,1.8-1.5,3.3-3.3,3.3h-7.3c-0.3-1.9-1.2-3.8-2.6-5.2
			c-1.7-1.7-4-2.7-6.4-2.7c-2.4,0-4.7,1-6.4,2.7c-1.4,1.4-2.3,3.2-2.6,5.2H6.5c-1.8,0-3.3-1.5-3.3-3.3V6.5c0-1.8,1.5-3.3,3.3-3.3
			h32.7c1.8,0,3.3,1.5,3.3,3.3V43.3L42.4,43.3z"/>
	</g>
</g>
</svg>
