<?xml version="1.0" encoding="utf-8"?>
<!-- Generator: Adobe Illustrator 19.0.0, SVG Export Plug-In . SVG Version: 6.00 Build 0)  -->
<svg version="1.1" id="图层_1" xmlns="http://www.w3.org/2000/svg" xmlns:xlink="http://www.w3.org/1999/xlink" x="0px" y="0px"
	 viewBox="0 0 57.3 57.3" style="enable-background:new 0 0 57.3 57.3;" xml:space="preserve">
<style type="text/css">
	.st0{fill-rule:evenodd;clip-rule:evenodd;fill:#B5B5B6;}
	.st1{fill:#B5B5B6;}
</style>
<g id="XMLID_36_">
	<g id="XMLID_9_">
		<g id="XMLID_10_">
			<path id="XMLID_4_" class="st0" d="M28.5,37.5c-1.5,0-2.8,1.4-2.8,3.1c0,1.7,1.3,3.1,2.8,3.1c1.5,0,2.8-1.4,2.8-3.1
				C31.3,38.9,30,37.5,28.5,37.5L28.5,37.5L28.5,37.5L28.5,37.5z M18.4,33.8l2,2.3c2.3-2.3,5.1-3.4,8.1-3.4c3,0,6.1,1.4,8.1,3.4
				l2-2.3c-2.8-2.8-6.3-4.5-10.1-4.5C24.7,29.3,21.2,31.3,18.4,33.8L18.4,33.8L18.4,33.8L18.4,33.8z M13.3,28.2l2,2.3
				c3.5-3.4,8.1-5.6,13.1-5.6s9.6,2.3,13.1,5.9l2-2.5c-4-4.2-9.3-6.8-15.2-6.8C22.7,21.5,17.4,24.3,13.3,28.2L13.3,28.2L13.3,28.2
				L13.3,28.2z M28.5,13.6c-7.8,0-14.9,3.4-20,9l2,2.3c4.5-5.1,10.9-8.2,17.9-8.2c7.1,0,13.4,3.1,18.2,8.2l2-2.3
				C43.4,17,36.3,13.6,28.5,13.6L28.5,13.6L28.5,13.6L28.5,13.6z"/>
		</g>
	</g>
	<g id="XMLID_16_">
		<path id="XMLID_285_" class="st1" d="M28.6,57.3C12.8,57.3,0,44.4,0,28.6C0,12.8,12.8,0,28.6,0s28.6,12.8,28.6,28.6
			C57.3,44.4,44.4,57.3,28.6,57.3z M28.6,2.6c-14.3,0-26,11.7-26,26s11.7,26,26,26s26-11.7,26-26S43,2.6,28.6,2.6z"/>
	</g>
</g>
</svg>
