<?xml version="1.0" encoding="utf-8"?>
<!-- Generator: Adobe Illustrator 19.0.0, SVG Export Plug-In . SVG Version: 6.00 Build 0)  -->
<svg version="1.1" id="图层_1" xmlns="http://www.w3.org/2000/svg" xmlns:xlink="http://www.w3.org/1999/xlink" x="0px" y="0px"
	 viewBox="-32.4 48.2 44.8 44.9" style="enable-background:new -32.4 48.2 44.8 44.9;" xml:space="preserve">
<style type="text/css">
	.st0{fill:#B5B5B6;}
</style>
<g id="XMLID_1_">
	<path id="XMLID_5_" class="st0" d="M11.3,55l-37,37c-1.6,1.6-4,1.5-5.6-0.1c-1.6-1.6-1.6-4,0-5.5l37-37c1.6-1.6,4-1.6,5.5,0
		S12.8,53.5,11.3,55z"/>
</g>
<g id="XMLID_2_">
	<path id="XMLID_4_" class="st0" d="M11.3,92c-1.6,1.6-4,1.6-5.5,0l-37-37c-1.6-1.6-1.5-4,0-5.5c1.5-1.5,4-1.6,5.6-0.1l37,37
		C12.8,87.9,12.8,90.4,11.3,92z"/>
</g>
</svg>
