<?xml version="1.0" encoding="utf-8"?>
<!-- Generator: Adobe Illustrator 19.0.0, SVG Export Plug-In . SVG Version: 6.00 Build 0)  -->
<svg version="1.1" id="图层_1" xmlns="http://www.w3.org/2000/svg" xmlns:xlink="http://www.w3.org/1999/xlink" x="0px" y="0px"
	 viewBox="0 0 46 46" style="enable-background:new 0 0 46 46;" xml:space="preserve">
<style type="text/css">
	.st0{fill:#EA5514;}
	.st1{fill:#FFFFFF;}
</style>
<path class="st0" d="M23,0C10.3,0,0,10.3,0,23c0,12.7,10.3,23,23,23c12.7,0,23-10.3,23-23C46,10.3,35.7,0,23,0L23,0z M23,0"/>
<path class="st1" d="M33.2,25.4c0.5-0.6,0.5-1.5,0-2c-0.6-0.5-1.5-0.5-2,0l-6,6.3V14.4c0-0.8-0.6-1.4-1.4-1.4
	c-0.8,0-1.4,0.6-1.4,1.4v15.6l-6.6-6.4c-0.6-0.5-1.4-0.4-2,0.1c-0.5,0.5-0.6,1.4-0.1,2l10,9.9l0.7-0.7l1.3-1.3l7.5-7.8L33.2,25.4z
	 M33.2,25.4"/>
</svg>
