<?xml version="1.0" encoding="utf-8"?>
<!-- Generator: Adobe Illustrator 19.0.0, SVG Export Plug-In . SVG Version: 6.00 Build 0)  -->
<svg version="1.1" id="图层_1" xmlns="http://www.w3.org/2000/svg" xmlns:xlink="http://www.w3.org/1999/xlink" x="0px" y="0px"
	 viewBox="-43 43.7 54.9 55" style="enable-background:new -43 43.7 54.9 55;" xml:space="preserve">
<style type="text/css">
	.st0{fill:#9FA0A0;}
</style>
<path id="XMLID_15_" class="st0" d="M-16.2,72.4c3.7,3.5,3.8,9.2,0.3,12.8s-9.3,3.8-13,0.3s-3.8-9.2-0.3-12.8
	C-25.7,69.1-19.9,69-16.2,72.4 M-27.1,74.7c-2.4,2.5-2.3,6.5,0.2,8.9s6.5,2.3,9-0.2c2.4-2.5,2.3-6.5-0.2-8.9
	C-20.7,72.1-24.7,72.1-27.1,74.7 M-13.7,60.7l6.5-6.8C-8.9,52.3-9,49.6-7.3,48c1.6-1.7,4.3-1.7,6-0.1l3.8-3.4c0,0,2.6-2.4,6.5,1.2
	c4.8,4.6,2.4,7.2,2.4,7.2l-16,16.5c4.1,7.5,3,17.1-3.2,23.6c-2.4,2.4-5.2,4.2-8.2,5.2l-0.1-3c2.3-0.9,4.4-2.3,6.2-4.2
	c5.2-5.4,6.2-13.2,3.2-19.5L-8.2,69L7.7,52.6c0,0,2.2-2.1-0.7-4.6c-2.7-2.4-4.4-0.2-4.4-0.2l-3.9,4l-2-1.9c-0.6-0.5-1.5-0.5-2,0
	c-0.2,0.2-0.4,0.6-0.4,1s0.2,0.8,0.4,1l2,1.9l-10,10.5l-2.5-1.4c-6.5-2.7-14.3-1.3-19.5,4.1c-6.7,7-6.5,18,0.6,24.7
	c2.2,2,4.7,3.4,7.4,4.2l0.1,2.9c-3.4-0.8-6.7-2.5-9.4-5c-8.2-7.7-8.5-20.5-0.7-28.6C-31.1,58.5-21.5,57.1-13.7,60.7L-13.7,60.7z"/>
</svg>
