<?xml version="1.0" encoding="utf-8"?>
<!-- Generator: Adobe Illustrator 19.0.0, SVG Export Plug-In . SVG Version: 6.00 Build 0)  -->
<svg version="1.1" id="图层_1" xmlns="http://www.w3.org/2000/svg" xmlns:xlink="http://www.w3.org/1999/xlink" x="0px" y="0px"
	 viewBox="0 0 62.7 60" style="enable-background:new 0 0 62.7 60;" xml:space="preserve">
<style type="text/css">
	.st0{fill-rule:evenodd;clip-rule:evenodd;fill:#E95513;}
</style>
<g id="XMLID_631_">
	<path id="XMLID_651_" class="st0" d="M12.3,43.6c-0.8,0-1.4,0.6-1.4,1.4c0,0.7,0.6,1.4,1.4,1.4H22c0.8,0,1.4-0.6,1.4-1.4
		c0-0.7-0.6-1.4-1.4-1.4H12.3L12.3,43.6z M37.9,34.1c0-0.7-0.6-1.4-1.4-1.4H12.3c-0.8,0-1.4,0.6-1.4,1.4c0,0.7,0.6,1.4,1.4,1.4h24.2
		C37.2,35.5,37.9,34.9,37.9,34.1L37.9,34.1z M62.3,37.4c-0.5-0.5-1.4-0.5-1.9,0L41.1,56.7l-8.2-8.2c-0.5-0.5-1.4-0.5-2,0
		c-0.5,0.5-0.5,1.4,0,2l8.4,8.4l0.7,0.7c0.5,0.5,1.4,0.5,1.9,0l20.3-20.3C62.9,38.8,62.9,37.9,62.3,37.4L62.3,37.4z"/>
	<path id="XMLID_645_" class="st0" d="M25.9,54.5H8.2c-3,0-5.4-2.4-5.4-5.5V24.6h43.6v9.5c0,0.8,0.6,1.4,1.4,1.4
		c0.7,0,1.4-0.6,1.4-1.4V13.6c0-4.5-3.7-8.2-8.2-8.2h-0.7V1.4c0-0.8-0.6-1.4-1.4-1.4c-0.7,0-1.4,0.6-1.4,1.4v4.1H12.7V1.4
		c0-0.8-0.6-1.4-1.4-1.4C10.6,0,10,0.6,10,1.4v4.1H8.2C3.7,5.4,0,9.1,0,13.6v35.5c0,4.5,3.7,8.2,8.2,8.2h17.8c0.8,0,1.4-0.6,1.4-1.4
		C27.3,55.2,26.7,54.5,25.9,54.5L25.9,54.5z M2.7,13.6c0-3,2.4-5.5,5.4-5.5H10V12c0,0.8,0.6,1.4,1.4,1.4c0.7,0,1.4-0.6,1.4-1.4V8.2
		h24.7V12c0,0.8,0.6,1.4,1.4,1.4c0.7,0,1.4-0.6,1.4-1.4V8.2h0.7c1.1,0,2.2,0.3,3,0.9c0.6,0.4,1.1,0.9,1.5,1.5c0.6,0.9,0.9,1.9,0.9,3
		v8.2H2.7V13.6L2.7,13.6z"/>
</g>
</svg>
