<?xml version="1.0" encoding="utf-8"?>
<!-- Generator: Adobe Illustrator 19.0.0, SVG Export Plug-In . SVG Version: 6.00 Build 0)  -->
<svg version="1.1" id="图层_1" xmlns="http://www.w3.org/2000/svg" xmlns:xlink="http://www.w3.org/1999/xlink" x="0px" y="0px"
	 viewBox="0 0 57.2 60" style="enable-background:new 0 0 57.2 60;" xml:space="preserve">
<style type="text/css">
	.st0{fill:#E95513;}
</style>
<path id="XMLID_6_" class="st0" d="M50.5,50.9c5.2-6.4,4.9-15.9-1.1-21.9c-3.2-3.2-7.4-4.8-11.6-4.8c-4.2,0-8.4,1.6-11.6,4.8
	c-6.4,6.4-6.4,16.7,0,23.1c3.2,3.2,7.4,4.8,11.6,4.8c3.7,0,7.3-1.2,10.3-3.7l6.7,6.7l2.4-2.4L50.5,50.9z M47.9,48.8l-0.8,1l-1,0.8
	c-1.2,0.9-2.5,1.7-3.9,2.2c-1.4,0.5-2.8,0.7-4.3,0.7c-3.5,0-6.7-1.4-9.2-3.8c-2.5-2.5-3.8-5.7-3.8-9.2c0-3.5,1.4-6.7,3.8-9.2
	c2.5-2.5,5.7-3.8,9.2-3.8c3.5,0,6.7,1.4,9.2,3.8c2.3,2.3,3.6,5.3,3.8,8.6C50.9,43.2,49.9,46.3,47.9,48.8L47.9,48.8z M47.9,48.8"/>
<path id="XMLID_2_" class="st0" d="M23.1,56.5H3.4V3.4h4.4v22.2l9.8-7.4l9.8,7.4V3.4h23.9v20.8h3.4V0H0v59.9h23.1V56.5z M11.1,3.4
	h12.8v15.4l-4.4-3.3l-2-1.5l-2,1.5l-4.4,3.3V3.4z M11.1,3.4"/>
</svg>
