<?xml version="1.0" encoding="utf-8"?>
<!-- Generator: Adobe Illustrator 19.0.0, SVG Export Plug-In . SVG Version: 6.00 Build 0)  -->
<svg version="1.1" id="图层_1" xmlns="http://www.w3.org/2000/svg" xmlns:xlink="http://www.w3.org/1999/xlink" x="0px" y="0px"
	 viewBox="0 0 62.1 49.3" style="enable-background:new 0 0 62.1 49.3;" xml:space="preserve">
<style type="text/css">
	.st0{fill-rule:evenodd;clip-rule:evenodd;fill:#B5B5B6;}
</style>
<g id="XMLID_22_">
	<path id="XMLID_23_" class="st0" d="M54.4,35.5c0,0-0.5-16.4-0.5-17.7C50,9.1,41.2,3,31,3c-10.2,0-19,6.1-22.9,14.8
		c0,3.8-0.2,17.7-0.2,17.7c-4.9,0-7.9-4-7.9-8.9c0-3.3,1.8-6.2,4.5-7.8C8.4,7.9,18.8,0,31,0c12.3,0,22.7,7.9,26.5,18.9
		c2.7,1.5,4.5,4.4,4.5,7.8C62.1,31.6,59.3,35.5,54.4,35.5L54.4,35.5L54.4,35.5z M12.4,41.4c0.8-1.8,0.9-3.2,0.7-3.7
		c-1.2-2.7-1.9-5.6-1.9-8.6c0-2.7,0.5-5.4,1.6-7.9c1-2.4,2.4-4.6,4.2-6.4c1.8-1.9,3.9-3.3,6.3-4.3c2.4-1.1,5-1.6,7.7-1.6
		c2.7,0,5.3,0.5,7.7,1.6c2.4,1,4.5,2.5,6.3,4.3c1.8,1.9,3.2,4,4.2,6.4c1,2.5,1.6,5.1,1.6,7.9c0,2.7-0.5,5.4-1.6,7.9
		c-1,2.4-2.4,4.6-4.2,6.4c-1.8,1.9-3.9,3.3-6.3,4.3c-2.4,1.1-5,1.6-7.7,1.6c-3.6,0-7-0.9-10.1-2.8c-0.1,0-0.1,0-0.1-0.1
		c-0.2-0.1-0.3-0.1-0.5,0C19,47.1,16.6,48,13.6,48c-1.3,0-2.6-0.2-3.8-0.6l-2.4-0.8l2.1-1.4C10.5,44.6,11.7,43.1,12.4,41.4
		L12.4,41.4L12.4,41.4z M13.6,45.6c3.6,0,6.5-1.7,6.5-1.7c0.2-0.1,0.4-0.2,0.6-0.2c0.2,0,0.4,0.1,0.6,0.2c2.9,2,6.2,3,9.7,3
		c9.7,0,17.5-8,17.5-17.9c0-9.9-7.9-17.9-17.5-17.9c-9.7,0-17.5,8-17.5,17.9c0,2.7,0.6,5.2,1.7,7.6l0,0c0.8,1.9-0.2,4.6-0.6,5.6
		c-0.5,1.2-1.2,2.3-2,3.2C12.9,45.6,13.2,45.6,13.6,45.6L13.6,45.6L13.6,45.6z M22.8,26.3c1.5,0,2.7,1.2,2.7,2.8
		c0,1.5-1.2,2.8-2.7,2.8c-1.5,0-2.7-1.2-2.7-2.8C20.1,27.5,21.3,26.3,22.8,26.3L22.8,26.3L22.8,26.3z M31.5,26.3
		c1.5,0,2.7,1.2,2.7,2.8c0,1.5-1.2,2.8-2.7,2.8c-1.5,0-2.7-1.2-2.7-2.8C28.8,27.5,30,26.3,31.5,26.3L31.5,26.3L31.5,26.3z
		 M40.3,26.3c1.5,0,2.7,1.2,2.7,2.8c0,1.5-1.2,2.8-2.7,2.8c-1.5,0-2.7-1.2-2.7-2.8C37.5,27.5,38.8,26.3,40.3,26.3L40.3,26.3
		L40.3,26.3z"/>
</g>
</svg>
