<?xml version="1.0" encoding="utf-8"?>
<!-- Generator: Adobe Illustrator 19.0.0, SVG Export Plug-In . SVG Version: 6.00 Build 0)  -->
<svg version="1.1" id="图层_1" xmlns="http://www.w3.org/2000/svg" xmlns:xlink="http://www.w3.org/1999/xlink" x="0px" y="0px"
	 viewBox="0 0 173.8 60" style="enable-background:new 0 0 173.8 60;" xml:space="preserve">
<style type="text/css">
	.st0{fill:#F2F2F3;}
	.st1{fill:#898989;}
	.st2{font-family:'MicrosoftYaHei';}
	.st3{font-size:6px;}
	.st4{font-size:5px;}
	.st5{fill:#DCDDDD;}
	.st6{fill:none;stroke:#DCDDDD;stroke-width:0.5;stroke-miterlimit:10;}
</style>
<g id="XMLID_10_">
	<path id="XMLID_11_" class="st0" d="M173.5,16c0-2.4-1.9-4.3-4.3-4.3H4.6c-2.4,0-4.3,1.9-4.3,4.3v8.6h173.3V16z"/>
</g>
<text id="XMLID_1_" transform="matrix(1 0 0 1 -1.8827 4.9399)" class="st1 st2 st3"> 附件保修期限：</text>
<text id="XMLID_4_" transform="matrix(1 0 0 1 6.423 20.8881)"><tspan x="0" y="0" class="st1 st2 st4">品名</tspan><tspan x="0" y="11.5" class="st1 st2 st4">表托</tspan><tspan x="0" y="23" class="st1 st2 st4">充电器</tspan><tspan x="0" y="34.5" class="st1 st2 st4">电池</tspan></text>
<text id="XMLID_5_" transform="matrix(1 0 0 1 49.9575 20.8881)"><tspan x="0" y="0" class="st1 st2 st4">保修期限</tspan><tspan x="0" y="11" class="st1 st2 st4">1年</tspan><tspan x="0" y="22" class="st1 st2 st4">1年</tspan><tspan x="0" y="33" class="st1 st2 st4">6个月</tspan></text>
<text id="XMLID_6_" transform="matrix(1 0 0 1 95.6471 20.8881)"><tspan x="0" y="0" class="st1 st2 st4">品名</tspan><tspan x="0" y="11.5" class="st1 st2 st4">表带</tspan><tspan x="0" y="23" class="st1 st2 st4">充电底座</tspan></text>
<text id="XMLID_7_" transform="matrix(1 0 0 1 141.7678 20.8881)"><tspan x="0" y="0" class="st1 st2 st4">保修期限</tspan><tspan x="0" y="11.5" class="st1 st2 st4">1年</tspan><tspan x="0" y="23" class="st1 st2 st4">1年</tspan></text>
<g id="XMLID_3_">
	<path id="XMLID_158_" class="st5" d="M169.2,60H4.6C2,60,0,58,0,55.5V16c0-2.5,2-4.6,4.6-4.6h164.7c2.5,0,4.6,2,4.6,4.6v39.5
		C173.8,58,171.7,60,169.2,60z M4.6,11.9c-2.2,0-4.1,1.8-4.1,4.1v39.5c0,2.2,1.8,4.1,4.1,4.1h164.7c2.2,0,4.1-1.8,4.1-4.1V16
		c0-2.2-1.8-4.1-4.1-4.1H4.6z"/>
</g>
<line id="XMLID_8_" class="st6" x1="43.6" y1="11.7" x2="43.6" y2="59.8"/>
<line id="XMLID_12_" class="st6" x1="86.9" y1="11.7" x2="86.9" y2="59.8"/>
<line id="XMLID_13_" class="st6" x1="130.2" y1="11.7" x2="130.2" y2="59.8"/>
<line id="XMLID_2_" class="st6" x1="0.2" y1="36.3" x2="173.4" y2="36.3"/>
<line id="XMLID_21_" class="st6" x1="0.2" y1="48.1" x2="173.4" y2="48.1"/>
</svg>
