<?xml version="1.0" encoding="utf-8"?>
<!-- Generator: Adobe Illustrator 19.0.0, SVG Export Plug-In . SVG Version: 6.00 Build 0)  -->
<svg version="1.1" id="图层_1" xmlns="http://www.w3.org/2000/svg" xmlns:xlink="http://www.w3.org/1999/xlink" x="0px" y="0px"
	 viewBox="-635 109.8 173.8 48.3" style="enable-background:new -635 109.8 173.8 48.3;" xml:space="preserve">
<style type="text/css">
	.st0{fill:#F2F2F3;}
	.st1{fill:#898989;}
	.st2{font-family:'MicrosoftYaHei';}
	.st3{font-size:5px;}
	.st4{fill:#DCDDDD;}
	.st5{fill:none;stroke:#DCDDDD;stroke-width:0.5;stroke-miterlimit:10;}
</style>
<g id="XMLID_10_">
	<path id="XMLID_11_" class="st0" d="M-461.5,114.1c0-2.4-1.9-4.3-4.3-4.3h-164.6c-2.4,0-4.3,1.9-4.3,4.3v8.6h173.3v-8.6H-461.5z"/>
</g>
<text transform="matrix(1 0 0 1 -628.577 119.9974)" class="st1 st2 st3">品名</text>
<text transform="matrix(1 0 0 1 -628.577 131.4973)" class="st1 st2 st3">表托</text>
<text transform="matrix(1 0 0 1 -628.577 142.9973)" class="st1 st2 st3">充电器</text>
<text transform="matrix(1 0 0 1 -628.577 154.4973)" class="st1 st2 st3">电池</text>
<text transform="matrix(1 0 0 1 -585.0425 119.9974)" class="st1 st2 st3">保修期限</text>
<text transform="matrix(1 0 0 1 -585.0425 130.0081)" class="st1 st2 st3">1年</text>
<text transform="matrix(1 0 0 1 -585.0425 141.0081)" class="st1 st2 st3">1年</text>
<text transform="matrix(1 0 0 1 -585.0425 152.0081)" class="st1 st2 st3">6个月</text>
<text transform="matrix(1 0 0 1 -539.3529 119.9974)" class="st1 st2 st3">品名</text>
<text transform="matrix(1 0 0 1 -539.3529 131.4973)" class="st1 st2 st3">表带</text>
<text transform="matrix(1 0 0 1 -539.3529 142.9973)" class="st1 st2 st3">充电底座</text>
<text transform="matrix(1 0 0 1 -493.2322 119.9974)" class="st1 st2 st3">保修期限</text>
<text transform="matrix(1 0 0 1 -493.2322 130.5081)" class="st1 st2 st3">1年</text>
<text transform="matrix(1 0 0 1 -493.2322 142.0081)" class="st1 st2 st3">1年</text>
<g id="XMLID_3_">
	<path id="XMLID_158_" class="st4" d="M-465.8,158.1h-164.6c-2.6,0-4.6-2-4.6-4.5v-39.5c0-2.5,2-4.6,4.6-4.6h164.7
		c2.5,0,4.6,2,4.6,4.6v39.5C-461.2,156.1-463.3,158.1-465.8,158.1z M-630.4,110c-2.2,0-4.1,1.8-4.1,4.1v39.5c0,2.2,1.8,4.1,4.1,4.1
		h164.7c2.2,0,4.1-1.8,4.1-4.1v-39.5c0-2.2-1.8-4.1-4.1-4.1H-630.4z"/>
</g>
<line id="XMLID_8_" class="st5" x1="-591.4" y1="109.8" x2="-591.4" y2="157.9"/>
<line id="XMLID_12_" class="st5" x1="-548.1" y1="109.8" x2="-548.1" y2="157.9"/>
<line id="XMLID_13_" class="st5" x1="-504.8" y1="109.8" x2="-504.8" y2="157.9"/>
<line id="XMLID_2_" class="st5" x1="-634.8" y1="134.4" x2="-461.6" y2="134.4"/>
<line id="XMLID_21_" class="st5" x1="-634.8" y1="146.2" x2="-461.6" y2="146.2"/>
</svg>
